<svg id="Layer_1" data-name="Layer 1" xmlns="http://www.w3.org/2000/svg" xmlns:xlink="http://www.w3.org/1999/xlink" viewBox="0 0 367.71 346.32"><defs><style>.cls-1,.cls-2,.cls-3,.cls-4,.cls-5{fill-rule:evenodd;}.cls-1{fill:url(#linear-gradient);}.cls-2{fill:url(#linear-gradient-2);}.cls-3{fill:url(#linear-gradient-3);}.cls-4{fill:url(#linear-gradient-4);}.cls-5{fill:#993192;}</style><linearGradient id="linear-gradient" x1="128.36" y1="169.77" x2="233.49" y2="169.77" gradientUnits="userSpaceOnUse"><stop offset="0" stop-color="#b5f"/><stop offset="1" stop-color="#7f31a7"/></linearGradient><linearGradient id="linear-gradient-2" x1="126.58" y1="194.69" x2="241.14" y2="194.69" gradientUnits="userSpaceOnUse"><stop offset="0" stop-color="#3ff1ff"/><stop offset="0.54" stop-color="#007bd4"/><stop offset="1" stop-color="#005bd4"/></linearGradient><linearGradient id="linear-gradient-3" x1="122.87" y1="213.69" x2="233.54" y2="213.69" gradientUnits="userSpaceOnUse"><stop offset="0" stop-color="#0ca4fd"/><stop offset="0.09" stop-color="#11a1fd" stop-opacity="0.96"/><stop offset="0.23" stop-color="#1e97fd" stop-opacity="0.85"/><stop offset="0.42" stop-color="#3388fe" stop-opacity="0.68"/><stop offset="0.64" stop-color="#5174fe" stop-opacity="0.44"/><stop offset="0.9" stop-color="#765aff" stop-opacity="0.14"/><stop offset="1" stop-color="#874eff" stop-opacity="0"/></linearGradient><linearGradient id="linear-gradient-4" x1="199.01" y1="184.26" x2="147.4" y2="65.33" xlink:href="#linear-gradient-3"/></defs><path class="cls-1" d="M211.31,183.74c20.3-19.17,22.94-44.26,5.9-56-.32-.22-.64-.44-1-.64a32,32,0,0,1,4.94,2.82c18.67,12.9,15.78,40.37-6.46,61.36s-55.38,27.54-74.05,14.64c-16.6-11.48-16.15-34.48-.2-54.2-11.52,17-10.83,35.73,3.2,45.43C160.72,208.89,191,202.91,211.31,183.74Z"/><path class="cls-2" d="M144.19,210.72c21.89,15.13,59.25,9.65,83.44-12.24a65.18,65.18,0,0,0,13.51-16.78,62.38,62.38,0,0,1-15.85,21.61c-24.2,21.89-61.55,27.37-83.44,12.23-16.66-11.51-19.56-31.64-9.34-50.25C125.23,182.47,129,200.19,144.19,210.72Z"/><path class="cls-3" d="M143,221.92c25.25,17.45,64.89,16,90.52-2.72-23,22.54-62.82,26.15-89,8-14.22-9.83-21.53-24-21.63-38.6C123.52,201.07,130.26,213.1,143,221.92Z"/><path class="cls-4" d="M189.28,186.65h0c-8.23,2.12-18.15-2.48-21.9-10.27-.89-1.83-1.72-3.68-2.57-5.52A48.55,48.55,0,0,0,181,169.51a41.13,41.13,0,0,0,14-6.45c.78,1.86,1.55,3.73,2.4,5.57,3.6,7.83.05,15.9-8.17,18Zm-17.41-18.83c.88-.12,1.75-.26,2.63-.42-5.71-11.19-11.24-22.4-15.43-34s-6.77-23.59-8.82-35.74c-9.35,5-7.78,14-7.75,14.09A123.33,123.33,0,0,0,149,129c2.69,5.47,5.75,9.74,8.15,10.4,2.21,4.8,4.49,9.59,6.95,14.31s5.13,9.42,7.81,14.1Zm-24.13-29.55c-1.47-2.54.27-1.15-.56-4.78a179.87,179.87,0,0,0-6.12-20c-3.9-8.38-12.33-5.36-12.33-5.36a222,222,0,0,0,14.75,30.85c5.94,10.09,12.8,19.79,19.81,29.53,1.22,0,2.43-.07,3.65-.15-3.45-4.95-6.85-9.89-10.07-14.91s-7.67-12.6-9.13-15.14Zm39.41,25.61c-1.47-5-2.88-10-4.08-15.06s-2.13-10.19-3-15.33c1.73-1.74,2.19-7,2.48-13.15s.51-13.5.76-19.14c0-.12.14-9.53-9.48-9.65-.18,12.72.11,25.29,2,37.51s5.27,24,8.9,35.7c.81-.28,1.62-.57,2.41-.88Zm1-36c-.07-2.9-.87-.86-1.8-4.47s-1.73-10-1.29-21.28c2.28-10,10.77-11.33,10.77-11.33-1.87,12-3.43,23.91-3.64,35.61a241.74,241.74,0,0,0,2.31,34c-1,.55-2,1.08-3,1.58-.94-5.6-1.81-11.23-2.37-16.9s-.89-14.36-1-17.26Zm-10,38.84,3-.76c-1.87-4.68-3.69-9.38-5.33-14.11s-3.05-9.53-4.4-14.34c3.25-2.86,1.78-16.21.53-23.63-.69-4.09-1.12-8.22-1.53-12.36-1.65-5.22-5.56-8.13-8.24-7.44s-7,5.91-7.5,11.5c.45,4.13.92,8.25,1.68,12.32,1.37,7.39,5.89,20,10.27,20.85,1.66,4.72,3.39,9.45,5.32,14.1s4.06,9.27,6.2,13.87Zm-9.92-32.33a110,110,0,0,1-4.6-17.49,110,110,0,0,1-1.45-18.31c.87,5.47,1.69,11.59,2.77,18s2.31,12.39,3.28,17.83Zm19.68,51.22c-6.53-.68-13-4.76-15.77-10.68-.31-.65-.62-1.3-.92-1.95-1.15,0-2.27,0-3.4,0l.91,1.92C172.06,181.8,180.31,186.22,187.9,185.57Z"/><path class="cls-5" d="M153,157.73c-11.34,13.54-11.83,29.54-.36,37.47l.72.48a24.77,24.77,0,0,1-3.69-2.1c-12.44-8.6-12-25.89.07-40.64,1.08,1.61,2.16,3.2,3.26,4.79Zm41.46-25.62A29.67,29.67,0,0,1,209.6,137c12.37,8.55,12,25.68.15,40.37,8.58-12.67,8.07-26.62-2.38-33.84a26.45,26.45,0,0,0-12.68-4.34Q194.48,135.64,194.42,132.11Z"/></svg>