<svg id="Layer_1" data-name="Layer 1" xmlns="http://www.w3.org/2000/svg" xmlns:xlink="http://www.w3.org/1999/xlink" viewBox="0 0 367.71 346.32"><defs><style>.cls-1{fill:url(#linear-gradient);}.cls-2{fill:url(#linear-gradient-2);}.cls-3{fill:url(#linear-gradient-3);}.cls-4{fill:url(#linear-gradient-4);}.cls-5{fill:url(#linear-gradient-5);}.cls-6{fill:url(#linear-gradient-6);}.cls-7{isolation:isolate;}.cls-8{fill:#0078ff;}.cls-9{font-size:20.11px;fill:#fff;font-family:TomaSans-Regular, Toma Sans;}</style><linearGradient id="linear-gradient" x1="138.57" y1="140.94" x2="165.69" y2="197.77" gradientUnits="userSpaceOnUse"><stop offset="0" stop-color="#0ca4fd"/><stop offset="0.09" stop-color="#11a1fd" stop-opacity="0.96"/><stop offset="0.23" stop-color="#1e97fd" stop-opacity="0.85"/><stop offset="0.42" stop-color="#3388fe" stop-opacity="0.68"/><stop offset="0.64" stop-color="#5174fe" stop-opacity="0.44"/><stop offset="0.9" stop-color="#765aff" stop-opacity="0.14"/><stop offset="1" stop-color="#874eff" stop-opacity="0"/></linearGradient><linearGradient id="linear-gradient-2" x1="193.09" y1="113.41" x2="146.29" y2="177.3" xlink:href="#linear-gradient"/><linearGradient id="linear-gradient-3" x1="200.85" y1="171.4" x2="255.08" y2="171.4" xlink:href="#linear-gradient"/><linearGradient id="linear-gradient-4" x1="189.88" y1="141.44" x2="244.69" y2="141.44" xlink:href="#linear-gradient"/><linearGradient id="linear-gradient-5" x1="147.72" y1="185.57" x2="187.84" y2="237.2" xlink:href="#linear-gradient"/><linearGradient id="linear-gradient-6" x1="177.74" y1="215.29" x2="246.8" y2="215.29" xlink:href="#linear-gradient"/></defs><path class="cls-1" d="M132.27,144.14a64.89,64.89,0,0,0,1.95,61.66l45.41-53.3Z"/><path class="cls-2" d="M186.85,108.42a65,65,0,0,0-53.17,33L203,153.7Z"/><path class="cls-3" d="M248.22,202.22a65,65,0,0,0-1.94-61.64l-45.43,53.28Z"/><path class="cls-4" d="M244.69,138a64.85,64.85,0,0,0-54.81-29.66l23.65,66.21Z"/><path class="cls-5" d="M135.81,208.38A64.83,64.83,0,0,0,191.34,238L167,171.8Z"/><path class="cls-6" d="M194.37,237.88a64.94,64.94,0,0,0,52.43-33L177.74,192.7Z"/><g class="cls-7"><path class="cls-8" d="M190.24,249.88A76.71,76.71,0,1,1,267,173.17,76.79,76.79,0,0,1,190.24,249.88Zm0-148.21a71.51,71.51,0,1,0,71.51,71.5A71.58,71.58,0,0,0,190.24,101.67Z"/></g><g class="cls-7"><path class="cls-8" d="M190.24,281.22A108,108,0,1,1,298.29,173.17,108.16,108.16,0,0,1,190.24,281.22Zm0-210.89A102.85,102.85,0,1,0,293.09,173.17,103,103,0,0,0,190.24,70.33Z"/></g><text class="cls-9" transform="translate(112.37 149.57) rotate(-67.36)">C</text><text class="cls-9" transform="matrix(0.51, -0.86, 0.86, 0.51, 119.22, 134.32)">I</text><text class="cls-9" transform="translate(122.53 128.35) rotate(-51.13)">N</text><text class="cls-9" transform="matrix(0.76, -0.65, 0.65, 0.76, 132.4, 116.39)">E</text><text class="cls-9" transform="translate(142.61 107.33) rotate(-29.49)">M</text><text class="cls-9" transform="translate(159.1 98.33) rotate(-17.41)">A</text><text class="cls-9" transform="translate(171.26 94.44) rotate(-8.82)">T</text><text class="cls-9" transform="matrix(1, 0.04, -0.04, 1, 185.13, 92.22)">O</text><text class="cls-9" transform="matrix(0.97, 0.25, -0.25, 0.97, 202.61, 92.99)">G</text><text class="cls-9" transform="translate(219.51 97.63) rotate(25.79)">R</text><text class="cls-9" transform="matrix(0.81, 0.59, -0.59, 0.81, 232.33, 103.87)">A</text><text class="cls-9" transform="translate(244.64 113.13) rotate(46.28)">P</text><text class="cls-9" transform="translate(253.91 122.86) rotate(56.37)">H</text><text class="cls-9" transform="translate(262.26 135.64) rotate(67.07)">Y</text><text class="cls-9" transform="matrix(0.26, 0.97, -0.97, 0.26, 267.77, 149.54)">	</text><text class="cls-9" transform="translate(271.38 174.56) rotate(92.79)"> </text><text class="cls-9" transform="translate(270.96 181.88) rotate(97.94)"> </text><text class="cls-9" transform="translate(269.89 189.15) rotate(103.16)"> </text><text class="cls-9" transform="matrix(-0.32, 0.95, -0.95, -0.32, 268.16, 196.26)"> </text><text class="cls-9" transform="translate(265.8 203.21) rotate(113.58)"> </text><text class="cls-9" transform="translate(263.05 209.88) rotate(121.15)">T</text><text class="cls-9" transform="translate(255.67 221.88) rotate(130.92)">E</text><text class="cls-9" transform="translate(246.75 232.24) rotate(141.54)">C</text><text class="cls-9" transform="translate(233.67 242.41) rotate(152.66)">H</text><text class="cls-9" transform="translate(220 249.07) rotate(160.62)"> </text><text class="cls-9" transform="translate(213.27 251.66) rotate(168.64)">K</text><text class="cls-9" transform="matrix(-1, 0.02, -0.02, -1, 198.6, 254.53)">A</text><text class="cls-9" transform="translate(183.84 254.71) rotate(-170.57)">U</text><text class="cls-9" transform="translate(169.17 252.11) rotate(-160.82)">S</text><text class="cls-9" transform="translate(156.64 247.72) rotate(-150.62)">H</text><text class="cls-9" transform="matrix(-0.77, -0.64, 0.64, -0.77, 143.55, 240.25)">A</text><text class="cls-9" transform="translate(132.1 230.41) rotate(-130.11)">L</text><text class="cls-9" transform="matrix(-0.54, -0.84, 0.84, -0.54, 125.45, 222.82)">Y</text><text class="cls-9" transform="matrix(-0.4, -0.92, 0.92, -0.4, 118.87, 212.75)">A</text></svg>