<svg xmlns="http://www.w3.org/2000/svg" xmlns:xlink="http://www.w3.org/1999/xlink" viewBox="0 0 367.71 346.32"><defs><style>.cls-1{fill:none;}.cls-2{isolation:isolate;}.cls-3{fill:url(#linear-gradient);}.cls-12,.cls-17,.cls-21,.cls-4,.cls-7,.cls-9{mix-blend-mode:overlay;opacity:0.7;}.cls-4{fill:url(#linear-gradient-2);}.cls-10,.cls-15,.cls-19,.cls-5{mix-blend-mode:multiply;opacity:0.83;}.cls-5{fill:url(#linear-gradient-3);}.cls-6{fill:url(#linear-gradient-4);}.cls-7{fill:url(#linear-gradient-5);}.cls-8{fill:url(#linear-gradient-6);}.cls-9{fill:url(#linear-gradient-7);}.cls-10{fill:url(#linear-gradient-8);}.cls-11{fill:url(#linear-gradient-9);}.cls-12{fill:url(#linear-gradient-10);}.cls-13{clip-path:url(#clip-path);}.cls-14{fill:url(#linear-gradient-11);}.cls-15{fill:url(#linear-gradient-12);}.cls-16{fill:url(#linear-gradient-13);}.cls-17{fill:url(#linear-gradient-14);}.cls-18{fill:url(#linear-gradient-15);}.cls-19{fill:url(#linear-gradient-16);}.cls-20{fill:url(#linear-gradient-17);}.cls-21{fill:url(#linear-gradient-18);}</style><linearGradient id="linear-gradient" x1="238.01" y1="190.99" x2="323.14" y2="190.99" gradientTransform="translate(0 -0.01)" gradientUnits="userSpaceOnUse"><stop offset="0" stop-color="#00bef5"/><stop offset="1" stop-color="#007dc6"/></linearGradient><linearGradient id="linear-gradient-2" x1="238.01" y1="194.32" x2="323.14" y2="194.32" gradientTransform="translate(0 -0.01)" gradientUnits="userSpaceOnUse"><stop offset="0" stop-color="#fff"/><stop offset="1" stop-color="#fff" stop-opacity="0"/></linearGradient><linearGradient id="linear-gradient-3" x1="283.49" y1="174.56" x2="281.06" y2="191.8" gradientUnits="userSpaceOnUse"><stop offset="0" stop-color="#13355c"/><stop offset="1" stop-color="#fff" stop-opacity="0"/></linearGradient><linearGradient id="linear-gradient-4" x1="280.87" y1="145" x2="279.81" y2="179.61" gradientTransform="matrix(1, 0, 0, 1, 0, 0)" xlink:href="#linear-gradient"/><linearGradient id="linear-gradient-5" x1="273.07" y1="117.42" x2="280.87" y2="162.67" gradientTransform="matrix(1, 0, 0, 1, 0, 0)" xlink:href="#linear-gradient-2"/><linearGradient id="linear-gradient-6" x1="1952.72" y1="190.99" x2="2037.85" y2="190.99" gradientTransform="matrix(-1, 0, 0, 1, 2082.42, -0.01)" xlink:href="#linear-gradient"/><linearGradient id="linear-gradient-7" x1="1952.72" y1="194.32" x2="2037.85" y2="194.32" gradientTransform="matrix(-1, 0, 0, 1, 2082.42, -0.01)" xlink:href="#linear-gradient-2"/><linearGradient id="linear-gradient-8" x1="1998.2" y1="174.56" x2="1995.77" y2="191.8" gradientTransform="matrix(-1, 0, 0, 1, 2082.42, 0)" xlink:href="#linear-gradient-3"/><linearGradient id="linear-gradient-9" x1="1995.58" y1="145" x2="1994.52" y2="179.61" gradientTransform="matrix(-1, 0, 0, 1, 2082.42, 0)" xlink:href="#linear-gradient"/><linearGradient id="linear-gradient-10" x1="1987.78" y1="117.42" x2="1995.58" y2="162.67" gradientTransform="matrix(-1, 0, 0, 1, 2082.42, 0)" xlink:href="#linear-gradient-2"/><clipPath id="clip-path"><path class="cls-1" d="M143.57,179.19l11.4,2.5L169,191.35l20.74,15.38s-4,4.83-4.39,4.78-13,4-13,4l-.65-.38L157,208.51s-9.85-9.58-10.54-10.21-5.26-15.07-5.26-15.07Z"/></clipPath><linearGradient id="linear-gradient-11" x1="1259.74" y1="1337.65" x2="1235.68" y2="1423.31" gradientTransform="translate(1894.18 -535.09) rotate(108.08)" gradientUnits="userSpaceOnUse"><stop offset="0" stop-color="#ffdc00"/><stop offset="1" stop-color="#007dc6"/></linearGradient><linearGradient id="linear-gradient-12" x1="1243.74" y1="1385.47" x2="1250.11" y2="1387.17" gradientTransform="translate(1894.18 -535.09) rotate(108.08)" xlink:href="#linear-gradient-3"/><linearGradient id="linear-gradient-13" x1="1255.8" y1="1337.93" x2="1232.06" y2="1422.46" xlink:href="#linear-gradient-11"/><linearGradient id="linear-gradient-14" x1="1259.74" y1="1337.64" x2="1235.68" y2="1423.31" gradientTransform="translate(1894.18 -535.09) rotate(108.08)" xlink:href="#linear-gradient-2"/><linearGradient id="linear-gradient-15" x1="191.9" y1="230.18" x2="167.85" y2="315.85" gradientTransform="translate(55.42 -125.87) rotate(6.9)" xlink:href="#linear-gradient-11"/><linearGradient id="linear-gradient-16" x1="175.9" y1="278" x2="182.27" y2="279.71" gradientTransform="translate(55.42 -125.87) rotate(6.9)" xlink:href="#linear-gradient-3"/><linearGradient id="linear-gradient-17" x1="187.96" y1="230.47" x2="164.23" y2="314.99" gradientTransform="translate(55.42 -125.87) rotate(6.9)" xlink:href="#linear-gradient-11"/><linearGradient id="linear-gradient-18" x1="191.9" y1="230.18" x2="167.85" y2="315.85" gradientTransform="translate(55.42 -125.87) rotate(6.9)" xlink:href="#linear-gradient-2"/></defs><g class="cls-2"><g id="Layer_1" data-name="Layer 1"><path class="cls-3" d="M238,193.71V212a6.34,6.34,0,0,0,8.74,5.87l70.8-29a9,9,0,0,0,5.59-8.33V170.16a6.53,6.53,0,0,0-8.76-6.14L239.8,191.17A2.69,2.69,0,0,0,238,193.71Z"/><path class="cls-4" d="M238,201.28V212a6.34,6.34,0,0,0,8.74,5.87l70.8-29a9,9,0,0,0,5.59-8.33V170.28Z"/><path class="cls-5" d="M241.68,191.8v17.69a6.17,6.17,0,0,0,8.51,5.71l66.27-27.13a9,9,0,0,0,5.59-8.34V169.47a4.85,4.85,0,0,0-6.51-4.56Z"/><path class="cls-6" d="M323.14,173.71V168.9a12.05,12.05,0,0,0-7.47-11.14l-68.92-28.22a6.34,6.34,0,0,0-8.74,5.87v18.28a2.71,2.71,0,0,0,1.79,2.55l71.25,25.94A9,9,0,0,0,323.14,173.71Z"/><path class="cls-7" d="M323.14,168.9h0a12.05,12.05,0,0,0-7.47-11.14l-68.92-28.22a6.34,6.34,0,0,0-8.74,5.87v18.43a2.72,2.72,0,0,0,1.61,2.47h0v-12.2a6.34,6.34,0,0,1,8.74-5.87Z"/><path class="cls-8" d="M127.92,191.17,53.34,164a6.53,6.53,0,0,0-8.77,6.14v10.38a9,9,0,0,0,5.6,8.33l70.79,29A6.34,6.34,0,0,0,129.7,212V193.71A2.7,2.7,0,0,0,127.92,191.17Z"/><path class="cls-9" d="M44.57,170.28v10.26a9,9,0,0,0,5.6,8.33l70.79,29A6.34,6.34,0,0,0,129.7,212V201.28Z"/><path class="cls-10" d="M52.18,164.91a4.86,4.86,0,0,0-6.52,4.56v10.26a9,9,0,0,0,5.6,8.34l66.26,27.13a6.17,6.17,0,0,0,8.51-5.71V191.8Z"/><path class="cls-11" d="M56.66,182.18l71.26-25.94a2.71,2.71,0,0,0,1.78-2.55V135.41a6.34,6.34,0,0,0-8.74-5.87L52.05,157.76a12,12,0,0,0-7.48,11.14v4.81A9,9,0,0,0,56.66,182.18Z"/><path class="cls-12" d="M44.57,168.9h0a12,12,0,0,1,7.48-11.14L121,129.54a6.34,6.34,0,0,1,8.74,5.87v18.43a2.72,2.72,0,0,1-1.6,2.47h0v-12.2a6.34,6.34,0,0,0-8.75-5.87Z"/><g class="cls-13"><path class="cls-14" d="M224,253.88,154.17,201.7a10.32,10.32,0,0,1-3.64-11.47l1.43-4.37a2.34,2.34,0,0,1,3.63-1.15l69.79,52.15A10.32,10.32,0,0,1,229,248.33l-1.44,4.4A2.34,2.34,0,0,1,224,253.88Z"/><path class="cls-15" d="M224,253.88,154.17,201.7a10.32,10.32,0,0,1-3.64-11.47l1.43-4.37a2.34,2.34,0,0,1,3.63-1.15l69.79,52.15A10.32,10.32,0,0,1,229,248.33l-1.44,4.4A2.34,2.34,0,0,1,224,253.88Z"/><path class="cls-16" d="M225.38,236.86l-69.79-52.15a2.34,2.34,0,0,0-3.63,1.15l-1.29,3.94L229,248.33h0A10.32,10.32,0,0,0,225.38,236.86Z"/><path class="cls-17" d="M225.32,249.68l-1.37,4.2h0a2.34,2.34,0,0,0,3.63-1.14l1.44-4.41a10.32,10.32,0,0,0-3.64-11.47l-69.8-52.15a2.34,2.34,0,0,0-3.62,1.15l-.07.2,69.8,52.15A10.3,10.3,0,0,1,225.32,249.68Z"/></g><path class="cls-18" d="M226.24,131.94l-37.66,78.58A10.34,10.34,0,0,1,178,216.31l-4.56-.55a2.34,2.34,0,0,1-1.83-3.34l37.63-78.58a10.32,10.32,0,0,1,10.55-5.79l4.59.56A2.34,2.34,0,0,1,226.24,131.94Z"/><path class="cls-19" d="M226.24,131.94l-37.66,78.58A10.34,10.34,0,0,1,178,216.31l-4.56-.55a2.34,2.34,0,0,1-1.83-3.34l37.63-78.58a10.32,10.32,0,0,1,10.55-5.79l4.59.56A2.34,2.34,0,0,1,226.24,131.94Z"/><path class="cls-20" d="M209.27,133.84l-37.63,78.58a2.34,2.34,0,0,0,1.83,3.34l4.11.5,42.24-88.21h0A10.32,10.32,0,0,0,209.27,133.84Z"/><path class="cls-21" d="M221.86,131.41l4.38.53h0a2.33,2.33,0,0,0-1.83-3.33l-4.59-.56a10.32,10.32,0,0,0-10.55,5.79l-37.63,78.59a2.34,2.34,0,0,0,1.83,3.33l.21,0,37.63-78.58A10.32,10.32,0,0,1,221.86,131.41Z"/></g></g></svg>