<svg id="Layer_1" data-name="Layer 1" xmlns="http://www.w3.org/2000/svg" xmlns:xlink="http://www.w3.org/1999/xlink" viewBox="0 0 367.71 346.32"><defs><style>.cls-1{fill:url(#linear-gradient);}.cls-2{fill:url(#linear-gradient-2);}.cls-3{fill:url(#linear-gradient-3);}.cls-4{fill:url(#linear-gradient-4);}.cls-5{fill:url(#linear-gradient-5);}.cls-6{fill:url(#linear-gradient-6);}</style><linearGradient id="linear-gradient" x1="255.73" y1="167.79" x2="172.25" y2="167.79" gradientUnits="userSpaceOnUse"><stop offset="0" stop-color="#0ca4fd"/><stop offset="0.09" stop-color="#11a1fd" stop-opacity="0.96"/><stop offset="0.23" stop-color="#1e97fd" stop-opacity="0.85"/><stop offset="0.42" stop-color="#3388fe" stop-opacity="0.68"/><stop offset="0.64" stop-color="#5174fe" stop-opacity="0.44"/><stop offset="0.9" stop-color="#765aff" stop-opacity="0.14"/><stop offset="1" stop-color="#874eff" stop-opacity="0"/></linearGradient><linearGradient id="linear-gradient-2" x1="114.97" y1="156.24" x2="183.91" y2="156.24" xlink:href="#linear-gradient"/><linearGradient id="linear-gradient-3" x1="166.17" y1="167.79" x2="204.83" y2="167.79" xlink:href="#linear-gradient"/><linearGradient id="linear-gradient-4" x1="1710.3" y1="449.13" x2="1748.96" y2="449.13" gradientTransform="translate(1921.65 605.37) rotate(180)" xlink:href="#linear-gradient"/><linearGradient id="linear-gradient-5" x1="60" y1="227.56" x2="298.05" y2="227.56" xlink:href="#linear-gradient"/><linearGradient id="linear-gradient-6" x1="71.86" y1="95.64" x2="307.71" y2="95.64" gradientUnits="userSpaceOnUse"><stop offset="0" stop-color="#874eff" stop-opacity="0"/><stop offset="0.1" stop-color="#765aff" stop-opacity="0.14"/><stop offset="0.36" stop-color="#5174fe" stop-opacity="0.44"/><stop offset="0.58" stop-color="#3388fe" stop-opacity="0.68"/><stop offset="0.77" stop-color="#1e97fd" stop-opacity="0.85"/><stop offset="0.91" stop-color="#11a1fd" stop-opacity="0.96"/><stop offset="1" stop-color="#0ca4fd"/></linearGradient></defs><path class="cls-1" d="M256,159.78l-27.56-35.13a9.33,9.33,0,0,0-7.32-3.55h-9.42L206.33,134h6.82a6.67,6.67,0,0,1,4.45,1.69,5.39,5.39,0,0,1,.84.88L238.38,162a9.39,9.39,0,0,1,0,11.59L218.44,199a6.7,6.7,0,0,1-5.29,2.57H173.68l-5.36,12.91H221.1a9.32,9.32,0,0,0,7.32-3.55L256,175.79A13,13,0,0,0,256,159.78Z"/><path class="cls-2" d="M156.43,109.55a9.33,9.33,0,0,0-7.32,3.56l-27.56,35.13a13,13,0,0,0,0,16l27.56,35.13a9.33,9.33,0,0,0,7.32,3.56h9.43L171.21,190h-6.83a6.72,6.72,0,0,1-5.29-2.57L139.15,162a9.37,9.37,0,0,1,0-11.58L159.09,125a6.72,6.72,0,0,1,5.29-2.57h39.45l5.38-12.92Z"/><polygon class="cls-3" points="180.29 214.47 168.32 214.47 207.04 121.1 219.02 121.1 180.29 214.47"/><polygon class="cls-4" points="197.24 109.55 209.21 109.55 170.48 202.93 158.51 202.93 197.24 109.55"/><path class="cls-5" d="M295.24,182.76l-1-.38a4.33,4.33,0,0,0-5.74,3.14,106.41,106.41,0,0,1-186.61,43.34l1-.56,24.15-13c4.79-2,.55-7.87.55-7.87l-56-29.72c-6.1-2.52-6.14,1.43-6.14,1.43L60,243.67c2.11,9.68,9.64.67,9.64.67l3.85-55.06,39.81,20.21c3.82,1.9-.23,3.24-.23,3.24l-19.4,10.92a4.2,4.2,0,0,0-.52.26l-.85.51-.5.28.06.05a4.3,4.3,0,0,0-.87,6,116.15,116.15,0,0,0,207-42.91A4.36,4.36,0,0,0,295.24,182.76Z"/><path class="cls-6" d="M307.71,78.29c-2.78-9.51-9.66,0-9.66,0v55.19l-41.13-17.39c-3.94-1.63,0-3.25,0-3.25l19-12.51a3.7,3.7,0,0,0,.51-.29l.88-.62a4.33,4.33,0,0,0,1-6.09A116.15,116.15,0,0,0,72,133.5a4.33,4.33,0,0,0,2.46,5.05l1,.44a4.35,4.35,0,0,0,6-3A106.4,106.4,0,0,1,267.7,95.52L266,96.61l-23.19,14.61c-4.64,2.32,0,7.88,0,7.88l58,25.75c6.26,2.08,6-1.86,6-1.86Z"/></svg>