<svg id="Layer_1" data-name="Layer 1" xmlns="http://www.w3.org/2000/svg" viewBox="0 0 367.71 346.32"><defs><style>.cls-1{fill:#fff;}.cls-2{fill:#3a8cd6;}.cls-3{fill:#003359;}.cls-4{fill:#0078ff;isolation:isolate;}</style></defs><polygon class="cls-1" points="129.24 169.64 128.65 169.05 139.35 158.36 144.45 158.36 149.31 153.5 149.89 154.08 144.79 159.19 139.69 159.19 129.24 169.64"/><rect class="cls-2" x="124.73" y="144.4" width="35.59" height="5.8" transform="translate(-62.41 143.9) rotate(-44.99)"/><rect class="cls-2" x="129.92" y="218.2" width="17.54" height="14.32" transform="translate(199.98 -32.06) rotate(45)"/><path class="cls-3" d="M139.79,236.6l-12.33-12.34a2.43,2.43,0,0,0-3.32-.1L93.23,251.44a7,7,0,0,0-.32,10.21l9.5,9.5a7,7,0,0,0,10.2-.32l27.29-30.91A2.42,2.42,0,0,0,139.79,236.6Z"/><path class="cls-3" d="M247.65,116.4a77.54,77.54,0,1,0,0,109.66A77.54,77.54,0,0,0,247.65,116.4ZM234.56,213a59,59,0,1,1,0-83.46A59,59,0,0,1,234.56,213Z"/><path class="cls-4" d="M276.86,87.18H197.62l12.11,12.11-18,18-57.75,57.75a59,59,0,0,0,55,55l57.75-57.75,18-18,12.1,12.09Z"/><polygon class="cls-1" points="136 213.2 131.89 209.1 148.32 192.67 148.32 181.18 180.43 149.07 184.53 153.17 154.12 183.59 154.12 195.07 136 213.2"/><path class="cls-1" d="M189,156.19a11.37,11.37,0,1,1,11.37-11.36A11.37,11.37,0,0,1,189,156.19Zm0-16.93a5.57,5.57,0,1,0,5.56,5.57A5.57,5.57,0,0,0,189,139.26Z"/><path class="cls-1" d="M230.6,157.45A11.37,11.37,0,1,1,242,146.09,11.38,11.38,0,0,1,230.6,157.45Zm0-16.93a5.57,5.57,0,1,0,5.56,5.57A5.57,5.57,0,0,0,230.6,140.52Z"/><path class="cls-1" d="M184.36,219.3a11.37,11.37,0,1,1,11.36-11.37A11.38,11.38,0,0,1,184.36,219.3Zm0-16.93a5.57,5.57,0,1,0,5.56,5.56A5.56,5.56,0,0,0,184.36,202.37Z"/><path class="cls-2" d="M162,140a11.37,11.37,0,1,1,11.37-11.37A11.38,11.38,0,0,1,162,140Zm0-16.93a5.57,5.57,0,1,0,5.57,5.56A5.57,5.57,0,0,0,162,123.09Z"/><path class="cls-2" d="M236.79,212.13a11.37,11.37,0,1,1,11.37-11.36A11.38,11.38,0,0,1,236.79,212.13Zm0-16.93a5.57,5.57,0,1,0,5.57,5.57A5.58,5.58,0,0,0,236.79,195.2Z"/><polygon class="cls-1" points="152.02 213.86 147.91 209.76 178.42 179.25 194.32 179.25 222.89 150.68 226.99 154.78 196.72 185.05 180.82 185.05 152.02 213.86"/><rect class="cls-1" x="160.21" y="218.34" width="21.12" height="5.8" transform="translate(-106.42 185.53) rotate(-44.99)"/><polygon class="cls-2" points="186.84 246.23 182.74 242.13 209.2 215.67 219.03 215.67 228.55 206.15 232.65 210.25 221.43 221.47 211.6 221.47 186.84 246.23"/><path class="cls-3" d="M228.38,239.05c-1.62-3.79-3.24-7.58-4.83-11.38-.64-1.52-1.6-3.12-2.19-4.78A59,59,0,0,1,136,155.43l-1.35-.2c-5.77-.74-11.64-.42-17.41-1.07A77.54,77.54,0,0,0,228.77,240Z"/><rect class="cls-3" x="236.83" y="87.89" width="0.83" height="77.83" transform="translate(-20.18 204.9) rotate(-45)"/><polygon class="cls-3" points="154.69 217.88 154.1 217.3 181.79 189.61 205.74 189.61 214.87 180.48 215.46 181.07 206.09 190.44 182.14 190.44 154.69 217.88"/><path class="cls-3" d="M216.74,181.64A2.66,2.66,0,1,1,219.4,179,2.66,2.66,0,0,1,216.74,181.64Zm0-4.5a1.84,1.84,0,1,0,1.83,1.84A1.85,1.85,0,0,0,216.74,177.14Z"/><path class="cls-3" d="M244.32,167.31a2.66,2.66,0,1,1,2.66-2.66A2.66,2.66,0,0,1,244.32,167.31Zm0-4.49a1.84,1.84,0,1,0,1.83,1.83A1.84,1.84,0,0,0,244.32,162.82Z"/><path class="cls-3" d="M212.25,120.89a2.67,2.67,0,1,1,2.67-2.66A2.66,2.66,0,0,1,212.25,120.89Zm0-4.5a1.84,1.84,0,1,0,1.84,1.84A1.84,1.84,0,0,0,212.25,116.39Z"/><path class="cls-1" d="M151.24,154.66A2.67,2.67,0,1,1,153.9,152,2.67,2.67,0,0,1,151.24,154.66Zm0-4.5a1.84,1.84,0,1,0,1.84,1.83A1.83,1.83,0,0,0,151.24,150.16Z"/><polygon class="cls-3" points="135.14 187.17 134.55 186.58 146.39 174.74 173.78 174.74 180.89 167.63 191.96 167.63 210.47 149.12 210.47 138.5 203.38 131.41 203.38 126.64 210.5 119.52 211.09 120.1 204.21 126.98 204.21 131.07 211.3 138.16 211.3 149.47 192.31 168.46 181.23 168.46 174.12 175.57 146.73 175.57 135.14 187.17"/><polygon class="cls-3" points="181.62 230.4 181.03 229.82 203.39 207.46 203.39 199.85 208.05 195.19 213.39 195.19 242.53 166.04 243.12 166.63 213.73 196.02 208.39 196.02 204.22 200.19 204.22 207.8 181.62 230.4"/></svg>