<svg id="Layer_1" data-name="Layer 1" xmlns="http://www.w3.org/2000/svg" viewBox="0 0 367.71 346.32"><defs><style>.cls-1{fill:#0885fd;}.cls-2{fill:#fb006c;}.cls-3{fill:#5d23b3;}.cls-4{fill:#0152a6;}.cls-5{fill:#004092;}.cls-6{fill:#491b8f;}.cls-7{fill:#9335ec;}.cls-8{fill:#8138e6;}.cls-9{fill:#5d60f5;}.cls-10{fill:#0056c7;}.cls-11{fill:#fc9a0c;}.cls-12{fill:#fdbd0a;}.cls-13{fill:#fa7807;}.cls-14{fill:#fdd166;}.cls-15{fill:#a26ef5;}.cls-16{fill:#491b91;}.cls-17{fill:#8238e8;}.cls-18{fill:#5d23b5;}.cls-19{fill:#fd006c;}.cls-20{fill:#4e21a3;}.cls-21{fill:#fdc232;}.cls-22{fill:#e8a707;}.cls-23{fill:#f95506;}.cls-24{fill:#5e60f2;}</style></defs><path class="cls-1" d="M204.6,111l-4.44,3.48a8,8,0,0,1-.71-.49l3.11-2.45a5.87,5.87,0,0,1-1.36-1l-.17-.16a23.43,23.43,0,0,1-1.59-1.86l-2.95-3.77,1.61-1.09,3.38,4.31a20.28,20.28,0,0,0,1.59,1.86A6,6,0,0,0,204.6,111Z"/><path class="cls-2" d="M197.65,103.11l.45.56-1.61,1.09-.88-1.11a12.3,12.3,0,0,0-3.73-3.41,4.33,4.33,0,0,0-1.84-.52l.11-.21a4.37,4.37,0,0,1,3.77.18A12.48,12.48,0,0,1,197.65,103.11Z"/><path class="cls-3" d="M187.32,90l1.33,1.7Q192,96,190.09,99.43l.06.08-.11.21a2.28,2.28,0,0,0-.37,0,3.88,3.88,0,0,0-1.31-.36q1.33-3.17-1.75-7.1l-1.33-1.7-.29-.35L186.42,89Q186.87,89.45,187.32,90Z"/><path class="cls-4" d="M186.42,89,185,90.21A8.11,8.11,0,0,0,180,87a5.65,5.65,0,0,0-.59,0l-.29-.1a6,6,0,0,1,2.92-.4A7.49,7.49,0,0,1,186.42,89Z"/><path class="cls-5" d="M202.56,111.52,199.45,114a6.29,6.29,0,0,1-.6-.53,6.16,6.16,0,0,1-.47-.5l2.28-1.79.54-.6A5.87,5.87,0,0,0,202.56,111.52Z"/><path class="cls-2" d="M201,110.39l.17.16-.54.6a6,6,0,0,1-1.53-1.14,21.74,21.74,0,0,1-1.59-1.86l-2.1-2.68,1.05-.71,2.95,3.77A23.43,23.43,0,0,0,201,110.39Z"/><path class="cls-1" d="M195.61,103.65l.88,1.11-1.05.71-1.73-2.2A12.56,12.56,0,0,0,190,99.86l-.31-.14a2.28,2.28,0,0,1,.37,0,4.33,4.33,0,0,1,1.84.52A12.3,12.3,0,0,1,195.61,103.65Z"/><path class="cls-4" d="M185.28,90.56l1.33,1.7q3.09,3.93,1.75,7.1a4.56,4.56,0,0,0-2.15.32l-.06-.08.2-.37q1.58-3.26-1.64-7.34L184,91l1-.82Z"/><path class="cls-2" d="M185,90.21,184,91l-.66-.85a9.83,9.83,0,0,0-4-3.27,5.65,5.65,0,0,1,.59,0A8.11,8.11,0,0,1,185,90.21Z"/><path class="cls-4" d="M200.66,111.15l-2.28,1.79c-.34-.38-.77-.91-1.29-1.57l-3.6-4.59,1.95-1.31,2.1,2.68a21.74,21.74,0,0,0,1.59,1.86A6,6,0,0,0,200.66,111.15Z"/><path class="cls-5" d="M193.71,103.27l1.73,2.2-1.95,1.31-.39-.49a5.43,5.43,0,0,0-2.69-2.17,2.82,2.82,0,0,0-2.16.52h0a2.25,2.25,0,0,0-.89,0,2.68,2.68,0,0,0-.88-.39,3.28,3.28,0,0,0-2.72.91l-1.5,1.18,4.1,5.23-1.94,1.31L174,99.7l1.77-1.53,3.34,4.25,1-.78.91,1.15,1.52-1.2.52.66,1.58-1.25a3.54,3.54,0,0,0,1.39-1.92l.3.15-.2.37.06.08a4.56,4.56,0,0,1,2.15-.32c-.09.2-.19.41-.31.62l.06.07a4.46,4.46,0,0,1,1.56-.33l.31.14A12.56,12.56,0,0,1,193.71,103.27Z"/><path class="cls-2" d="M184,91l.67.86q3.21,4.08,1.64,7.34l-.3-.15a2.5,2.5,0,0,0,0-.29A4.09,4.09,0,0,0,185,96l-1.68-2.14a7,7,0,0,0-1.16-1.19Z"/><path class="cls-3" d="M183.38,90.18,184,91l-1.9,1.65a2.94,2.94,0,0,0-1.09-.57,2.48,2.48,0,0,0-2.07.54,2,2,0,0,0-1,0,2.65,2.65,0,0,0-.86-.4,2.56,2.56,0,0,0-2.21.65l-2,1.55,2.89,3.69L174,99.7l-4.65-5.93,6.46-5.07a13.1,13.1,0,0,1,2.89-1.76q.32,0,.63,0A9.83,9.83,0,0,1,183.38,90.18Z"/><path class="cls-6" d="M179.06,86.81l-.33.13a9.87,9.87,0,0,0-4.93,2.3l-6.46,5.08,5.23,6.66-1,.82L170,99.71h0l-3.11-4,0,0-1.42-1.81,6.46-5.07c2.25-1.76,4.3-2.53,6.15-2.29A5.09,5.09,0,0,1,179.06,86.81Z"/><path class="cls-2" d="M188.36,99.36a3.88,3.88,0,0,1,1.31.36,4.46,4.46,0,0,0-1.56.33l-.06-.07C188.17,99.77,188.27,99.56,188.36,99.36Z"/><path class="cls-2" d="M199.45,114l-1.33,1a8.7,8.7,0,0,1-1.21-.92l1.47-1.15a6.16,6.16,0,0,0,.47.5A6.29,6.29,0,0,0,199.45,114Z"/><path class="cls-1" d="M198.38,112.94l-1.47,1.15-.11-.1a26.94,26.94,0,0,1-1.75-2.08l-3.17-4,1.61-1.09,3.6,4.59C197.61,112,198,112.56,198.38,112.94Z"/><path class="cls-4" d="M193.1,106.29l.39.49-1.61,1.09-.82-1a5.43,5.43,0,0,0-2.69-2.17l-.12,0a2.82,2.82,0,0,1,2.16-.52A5.43,5.43,0,0,1,193.1,106.29Z"/><path class="cls-4" d="M183.3,93.87,185,96a4.09,4.09,0,0,1,1.12,2.78,2.5,2.5,0,0,1,0,.29,3.54,3.54,0,0,1-1.39,1.92l-1.58,1.25-.52-.66.06,0a3.32,3.32,0,0,0,1.44-2.21,4.07,4.07,0,0,0-1.12-2.77l-1.68-2.14a5.57,5.57,0,0,0-.48-.56l1.36-1.18A7,7,0,0,1,183.3,93.87Z"/><path class="cls-4" d="M182.14,92.68l-1.36,1.18A3.77,3.77,0,0,0,179,92.65h0a2.48,2.48,0,0,1,2.07-.54A2.94,2.94,0,0,1,182.14,92.68Z"/><path class="cls-5" d="M173.8,89.24a9.87,9.87,0,0,1,4.93-2.3,13.1,13.1,0,0,0-2.89,1.76l-6.46,5.07L174,99.7,172.57,101l-5.23-6.66Z"/><path class="cls-5" d="M196.8,114l.11.1-.69.54a7.44,7.44,0,0,1-1.31-1,22.79,22.79,0,0,1-1.76-2.08l-2.32-3,1-.71,3.17,4A26.94,26.94,0,0,0,196.8,114Z"/><path class="cls-1" d="M191.06,106.83l.82,1-1,.71-1.67-2.12a9.23,9.23,0,0,0-1.4-1.48l.48-.34h0l.12,0A5.43,5.43,0,0,1,191.06,106.83Z"/><path class="cls-7" d="M181.26,94.42l1.68,2.14a4.07,4.07,0,0,1,1.12,2.77,3.32,3.32,0,0,1-1.44,2.21l-.06,0-1-1.26a2.71,2.71,0,0,0,.59-1.37A4.12,4.12,0,0,0,181,96.18l-1.2-1.52.94-.8A5.57,5.57,0,0,1,181.26,94.42Z"/><path class="cls-3" d="M180.78,93.86l-.94.8-.48-.62a7.34,7.34,0,0,0-.91-1l.39-.3.14-.11h0A3.77,3.77,0,0,1,180.78,93.86Z"/><path class="cls-2" d="M179,92.65l-.14.11-.39.3a4,4,0,0,0-.48-.38A2,2,0,0,1,179,92.65Z"/><path class="cls-4" d="M178.45,93.06l-1.6,1.25-.51-.65.46-.36a3.34,3.34,0,0,1,1.17-.62A4,4,0,0,1,178.45,93.06Z"/><path class="cls-1" d="M187.35,104.68a3.56,3.56,0,0,1,.41.3l-.06,0-1.51,1.18,2.82,3.6-1.61,1.09-3.25-4.15,1.5-1.18A4.44,4.44,0,0,1,187.35,104.68Z"/><path class="cls-5" d="M178,92.68a3.34,3.34,0,0,0-1.17.62l-.46.36-1.53,1.2,1.95,2.48-1,.83-2.89-3.69,2-1.55a2.56,2.56,0,0,1,2.21-.65A2.65,2.65,0,0,1,178,92.68Z"/><path class="cls-2" d="M187.35,104.68a4.44,4.44,0,0,0-1.7.89l-1.5,1.18,3.25,4.15-1.05.71-4.1-5.23,1.5-1.18a3.28,3.28,0,0,1,2.72-.91A2.68,2.68,0,0,1,187.35,104.68Z"/><polygon class="cls-4" points="189.01 109.81 195.52 118.1 191.16 121.53 190.65 120.87 193.48 118.65 187.4 110.9 189.01 109.81"/><path class="cls-4" d="M181.57,100.33l1,1.26-1.52,1.2-.91-1.15.59-.47A4.52,4.52,0,0,0,181.57,100.33Z"/><path class="cls-5" d="M178.23,96.07l3.34,4.26a4.52,4.52,0,0,1-.85.84l-.59.47-3.37-4.3Z"/><polygon class="cls-4" points="176.85 94.31 178.23 96.07 176.76 97.34 174.81 94.86 176.34 93.66 176.85 94.31"/><polygon class="cls-5" points="187.4 110.9 193.48 118.65 190.65 120.87 189.74 119.72 191.58 118.27 186.35 111.61 187.4 110.9"/><polygon class="cls-4" points="176.76 97.34 180.13 101.64 179.14 102.42 175.81 98.17 176.76 97.34"/><polygon class="cls-6" points="186.35 111.61 191.58 118.27 189.74 119.72 184.41 112.92 186.35 111.61"/><rect class="cls-7" x="188.46" y="120.16" width="1.94" height="1.47" transform="translate(-34.23 142.72) rotate(-38.12)"/><polygon class="cls-5" points="184.41 112.92 189.74 119.72 188.21 120.91 182.79 114.01 184.41 112.92"/><polygon class="cls-8" points="174.03 99.7 184.41 112.92 182.79 114.01 172.57 100.98 174.03 99.7"/><polygon class="cls-1" points="182.79 114.01 188.21 120.91 187.24 121.68 185.55 119.52 185.53 119.54 181.75 114.72 182.79 114.01"/><polygon class="cls-4" points="172.57 100.98 182.79 114.01 181.75 114.72 171.61 101.8 172.57 100.98"/><polygon class="cls-5" points="187.24 121.68 188.66 123.49 176.77 132.82 176.25 132.16 186.62 124.03 184.02 120.72 185.53 119.54 187.22 121.69 187.24 121.68"/><polygon class="cls-5" points="166.86 95.75 169.97 99.72 162.46 105.61 161.95 104.96 167.96 100.24 165.36 96.93 166.86 95.75"/><polygon class="cls-1" points="184.02 120.72 186.62 124.03 176.25 132.16 175.35 131.01 184.72 123.65 183.03 121.5 184.02 120.72"/><rect class="cls-2" x="182.64" y="120.37" width="1.26" height="0.83" transform="translate(-35.47 138.89) rotate(-38.12)"/><polygon class="cls-7" points="165.36 96.93 167.96 100.24 161.95 104.96 160.42 106.15 162.92 109.34 161.97 110.17 158.52 105.78 166.06 99.87 164.36 97.71 165.36 96.93"/><rect class="cls-2" x="163.97" y="96.58" width="1.26" height="0.83" transform="translate(-24.77 122.3) rotate(-38.12)"/><polygon class="cls-2" points="174.21 108.25 177.32 112.21 171.33 116.91 170.81 116.25 175.28 112.75 172.68 109.44 174.21 108.25"/><polygon class="cls-4" points="183.03 121.5 184.72 123.65 175.35 131.01 169.21 123.19 171.15 121.87 174.08 125.6 175.07 124.82 175.98 125.98 177.5 124.78 178.02 125.43 183.03 121.5"/><rect class="cls-1" x="177.08" y="122.72" width="6.37" height="0.83" transform="translate(-37.57 137.54) rotate(-38.12)"/><rect class="cls-5" x="176.37" y="121.5" width="6.37" height="1.47" transform="translate(-37.16 136.91) rotate(-38.12)"/><polygon class="cls-3" points="164.36 97.71 166.06 99.87 158.52 105.78 161.97 110.17 160.2 111.7 154.99 105.07 164.36 97.71"/><polygon class="cls-6" points="163.85 97.06 164.36 97.71 154.99 105.07 160.2 111.7 158.73 112.97 152.95 105.61 163.85 97.06"/><polygon class="cls-5" points="162.94 95.9 163.85 97.06 152.95 105.61 158.73 112.97 157.77 113.8 151.05 105.23 162.94 95.9"/><polygon class="cls-8" points="172.68 109.44 175.28 112.75 170.81 116.25 169.29 117.45 172.2 121.16 171.15 121.87 167.39 117.08 173.38 112.38 171.69 110.22 172.68 109.44"/><rect class="cls-5" x="171.29" y="109.09" width="1.26" height="0.83" transform="translate(-30.93 129.49) rotate(-38.12)"/><polygon class="cls-5" points="171.69 110.22 173.38 112.38 167.39 117.08 171.15 121.87 169.21 123.19 160.2 111.7 161.97 110.17 164.28 113.11 165.27 112.33 166.18 113.49 167.7 112.29 168.22 112.94 171.69 110.22"/><rect class="cls-3" x="167.49" y="110.84" width="4.41" height="0.83" transform="translate(-32.49 128.48) rotate(-38.12)"/><rect class="cls-2" x="166.78" y="109.62" width="4.41" height="1.47" transform="translate(-32.08 127.85) rotate(-38.12)"/><rect class="cls-3" x="175.32" y="124.07" width="1.94" height="1.47" transform="translate(-39.44 135.44) rotate(-38.12)"/><polygon class="cls-4" points="173.81 120.08 176.6 123.62 175.07 124.82 172.2 121.16 173.81 120.08"/><polygon class="cls-2" points="171.33 116.91 173.81 120.08 172.2 121.16 169.29 117.45 170.81 116.25 171.33 116.91"/><rect class="cls-3" x="165.52" y="111.58" width="1.94" height="1.47" transform="translate(-33.82 126.73) rotate(-38.12)"/><polygon class="cls-1" points="164.39 108.06 166.8 111.14 165.27 112.33 162.92 109.34 164.39 108.06"/><polygon class="cls-5" points="162.46 105.61 164.39 108.06 162.92 109.34 160.42 106.15 161.95 104.96 162.46 105.61"/><polygon class="cls-5" points="172.2 121.16 175.07 124.82 174.08 125.6 171.15 121.87 172.2 121.16"/><polygon class="cls-3" points="162.92 109.34 165.27 112.33 164.28 113.11 161.97 110.17 162.92 109.34"/><rect class="cls-5" x="174.07" y="131.45" width="1.94" height="1.47" transform="translate(-44.27 136.25) rotate(-38.12)"/><polygon class="cls-1" points="169.21 123.19 175.35 131.01 173.82 132.21 167.6 124.27 169.21 123.19"/><polygon class="cls-4" points="160.2 111.7 169.21 123.19 167.6 124.27 158.73 112.97 160.2 111.7"/><polygon class="cls-4" points="167.6 124.27 173.82 132.21 172.83 132.99 166.55 124.98 167.6 124.27"/><polygon class="cls-3" points="158.73 112.97 167.6 124.27 166.55 124.98 157.77 113.8 158.73 112.97"/><path class="cls-5" d="M166.44,125.05l2.67,3.4a9.13,9.13,0,0,1,2.31,6.33,7.87,7.87,0,0,1-3.38,5.53,8.8,8.8,0,0,1-4.46,2,10.26,10.26,0,0,0,2.42-1.46,7.87,7.87,0,0,0,3.38-5.53,9.13,9.13,0,0,0-2.31-6.33l-2.24-2.85Z"/><polygon class="cls-7" points="166.03 124.52 166.44 125.05 164.83 126.14 164.5 125.72 166.03 124.52"/><polygon class="cls-7" points="157.68 113.88 159.72 116.48 155.59 119.71 155.08 119.06 157.68 117.02 156.21 115.15 157.68 113.88"/><path class="cls-2" d="M157.41,113.54l.27.34-1.47,1.27-.84-1.06a9.09,9.09,0,0,0-5.59-3.75,5.82,5.82,0,0,0-.73-.07l-.5-.16a6.58,6.58,0,0,1,3.27-.31A9.07,9.07,0,0,1,157.41,113.54Z"/><path class="cls-1" d="M164.83,126.14l2.24,2.85a9.13,9.13,0,0,1,2.31,6.33,7.87,7.87,0,0,1-3.38,5.53,10.26,10.26,0,0,1-2.42,1.46,6.2,6.2,0,0,1-1.72,0,5.32,5.32,0,0,1-.67-.14,10.39,10.39,0,0,0,2.91-1.65,7.89,7.89,0,0,0,3.38-5.54,9.09,9.09,0,0,0-2.31-6.32l-1.39-1.77Z"/><polygon class="cls-3" points="164.5 125.72 164.83 126.14 163.78 126.85 163.51 126.5 164.5 125.72"/><rect class="cls-5" x="163.12" y="125.37" width="1.26" height="0.83" transform="translate(-42.72 127.91) rotate(-38.12)"/><polygon class="cls-1" points="156.21 115.15 157.68 117.02 155.08 119.06 154.17 117.9 155.78 116.64 155.25 115.98 156.21 115.15"/><path class="cls-4" d="M155.37,114.09l.84,1.06-1,.83-1.79-2.27a9.83,9.83,0,0,0-4.42-3.44,5.82,5.82,0,0,1,.73.07A9.09,9.09,0,0,1,155.37,114.09Z"/><path class="cls-5" d="M163.78,126.85l1.39,1.77a9.09,9.09,0,0,1,2.31,6.32,7.89,7.89,0,0,1-3.38,5.54,10.39,10.39,0,0,1-2.91,1.65,9.61,9.61,0,0,1-4.92-3.6l-3.39-4.32,1.94-1.31,2.12,2.69c1,1.23,2,1.71,3,1.44a2.37,2.37,0,0,0,2.95-.14,2.56,2.56,0,0,0,2.17-.64c1.45-1.14,1.52-2.56.19-4.25l-3.15-4Z"/><polygon class="cls-7" points="163.51 126.5 163.78 126.85 162.09 127.99 161.91 127.76 163.51 126.5"/><rect class="cls-1" x="161.43" y="126.39" width="2.04" height="0.83" transform="translate(-43.63 127.33) rotate(-38.12)"/><polygon class="cls-2" points="162.09 124.69 163 125.85 161.4 127.11 159.87 128.3 160.48 129.08 159.43 129.79 157.97 127.93 162.09 124.69"/><polygon class="cls-4" points="155.25 115.98 155.78 116.64 154.17 117.9 153.72 117.32 155.25 115.98"/><path class="cls-3" d="M153.47,113.71l1.79,2.27-1.54,1.34-.65-.82q-2-2.5-4.08-1a2.21,2.21,0,0,0-1,0,2.42,2.42,0,0,0-3.07.24c-1.45,1.14-1.51,2.57-.16,4.29l2.33,3-1.77,1.53-.76-1a9.13,9.13,0,0,1-2.31-6.33,7.87,7.87,0,0,1,3.38-5.53,11,11,0,0,1,2.42-1.46,5.46,5.46,0,0,1,1,0A9.83,9.83,0,0,1,153.47,113.71Z"/><path class="cls-6" d="M147.88,110a5.32,5.32,0,0,1,.67.14l-.49.19a8.89,8.89,0,0,0-4.46,2,7.85,7.85,0,0,0-3.38,5.54,9.13,9.13,0,0,0,2.31,6.33l1.33,1.69-.86.75-.85-1.09a14.52,14.52,0,0,0-1.31-1.46l-.21-.27a9.13,9.13,0,0,1-2.31-6.33,9.26,9.26,0,0,1,9.56-7.49Z"/><path class="cls-4" d="M162.09,128l3.15,4c1.33,1.69,1.26,3.11-.19,4.25a2.56,2.56,0,0,1-2.17.64l.13-.1c1.45-1.14,1.51-2.55.18-4.25l-2.71-3.46Z"/><polygon class="cls-5" points="161.91 127.76 162.09 127.99 160.48 129.08 159.87 128.3 161.4 127.11 161.91 127.76"/><rect class="cls-4" x="152.89" y="118.34" width="1.94" height="1.47" transform="translate(-40.69 120.38) rotate(-38.12)"/><polygon class="cls-7" points="153.72 117.32 154.17 117.9 152.65 119.1 152.25 118.59 153.72 117.32"/><path class="cls-4" d="M153.07,116.5l.65.82-1.47,1.27L151,117a3.77,3.77,0,0,0-2-1.5Q151.11,114,153.07,116.5Z"/><path class="cls-4" d="M143.6,112.3a8.89,8.89,0,0,1,4.46-2,11,11,0,0,0-2.42,1.46,7.87,7.87,0,0,0-3.38,5.53,9.13,9.13,0,0,0,2.31,6.33l.76,1-1.47,1.27-1.33-1.69a9.13,9.13,0,0,1-2.31-6.33A7.85,7.85,0,0,1,143.6,112.3Z"/><path class="cls-5" d="M160.48,129.08l2.71,3.46c1.33,1.7,1.27,3.11-.18,4.25l-.13.1a3,3,0,0,1-1.4-.8q1.62-1.62-.18-3.92l-1.87-2.38Z"/><polygon class="cls-4" points="152.25 118.59 152.65 119.1 151.65 119.88 151.29 119.42 152.25 118.59"/><path class="cls-5" d="M151,117l1.22,1.55-1,.83-2.16-2.75a6.5,6.5,0,0,0-.64-.71c.12-.11.24-.22.38-.33l.12-.09A3.77,3.77,0,0,1,151,117Z"/><path class="cls-7" d="M148,115.56a2.21,2.21,0,0,1,1,0l-.12.09c-.14.11-.26.22-.38.33A5.74,5.74,0,0,0,148,115.56Z"/><path class="cls-4" d="M148,115.56a5.74,5.74,0,0,1,.49.4q-1.61,1.64.22,4l.81,1-1.47,1.28-1.38-1.77c-1.35-1.71-1.29-3.14.16-4.28A3.17,3.17,0,0,1,148,115.56Z"/><path class="cls-4" d="M144.93,115.8a2.42,2.42,0,0,1,3.07-.24,3.17,3.17,0,0,0-1.17.62c-1.45,1.14-1.51,2.57-.16,4.28l1.38,1.77-1,.83-2.33-3C143.42,118.37,143.48,116.94,144.93,115.8Z"/><path class="cls-3" d="M161.48,136.09a3,3,0,0,0,1.4.8,2.37,2.37,0,0,1-2.95.14,3.26,3.26,0,0,0,1.18-.61c.13-.11.26-.22.37-.33Z"/><path class="cls-7" d="M160.87,135.42a6.88,6.88,0,0,0,.61.67c-.11.11-.24.22-.37.33a3.26,3.26,0,0,1-1.18.61,5.15,5.15,0,0,1-1.1-1.06l-3-3.78,1.62-1.09Z"/><path class="cls-1" d="M158.83,136a5.15,5.15,0,0,0,1.1,1.06c-1,.27-2-.21-3-1.44l-2.12-2.69,1.05-.71Z"/><polygon class="cls-5" points="148.05 122.22 155.87 132.19 154.82 132.9 147.1 123.06 148.05 122.22"/><path class="cls-5" d="M163.58,142.31a6.7,6.7,0,0,1-3.76.51,8.16,8.16,0,0,1-1.18-.3,6.66,6.66,0,0,0,2.55-.39,5.32,5.32,0,0,0,.67.14A6.2,6.2,0,0,0,163.58,142.31Z"/><polygon class="cls-4" points="147.1 123.06 154.82 132.9 152.88 134.21 145.33 124.59 147.1 123.06"/><path class="cls-4" d="M161.19,142.13a6.66,6.66,0,0,1-2.55.39,10,10,0,0,1-4.42-3.45l-2.95-3.77,1.61-1.09,3.39,4.32A9.61,9.61,0,0,0,161.19,142.13Z"/><polygon class="cls-5" points="145.33 124.59 152.88 134.21 151.27 135.3 143.86 125.86 145.33 124.59"/><path class="cls-5" d="M158.64,142.52c-.24,0-.48,0-.72-.08a8,8,0,0,1-4.29-2.29l-2.86-3.65-.11.08-.44-.57,1.05-.71,2.95,3.77A10,10,0,0,0,158.64,142.52Z"/><polygon class="cls-3" points="143.86 125.86 151.27 135.3 150.22 136.01 144.35 128.53 144.45 128.45 143 126.61 143.86 125.86"/><path class="cls-1" d="M153.63,140.15l.22.28a9,9,0,0,1,2.3,6.32,7.87,7.87,0,0,1-3.37,5.54,8.89,8.89,0,0,1-4.46,2,10.7,10.7,0,0,0,2.41-1.46,7.83,7.83,0,0,0,3.38-5.53,9.07,9.07,0,0,0-2.3-6.33l-2.57-3.27,1.42-1.12,1.66,2.12A13.37,13.37,0,0,0,153.63,140.15Z"/><polygon class="cls-7" points="142.9 126.69 144.35 128.53 140.33 131.69 139.81 131.04 142.41 129 141.54 127.88 142.9 126.69"/><path class="cls-2" d="M140.84,124.06l2.06,2.63-1.36,1.19-1.43-1.82a9.13,9.13,0,0,0-5.6-3.74,5.51,5.51,0,0,0-.71-.08c-.17,0-.34-.11-.51-.15a6.53,6.53,0,0,1,3.26-.32A8,8,0,0,1,140.84,124.06Z"/><path class="cls-7" d="M149.24,137.7l2.57,3.27a9.07,9.07,0,0,1,2.3,6.33,7.83,7.83,0,0,1-3.38,5.53,10.7,10.7,0,0,1-2.41,1.46,6.2,6.2,0,0,1-1.72,0c-.23,0-.45-.08-.67-.14a10.35,10.35,0,0,0,2.9-1.65,7.85,7.85,0,0,0,3.38-5.54,9.07,9.07,0,0,0-2.3-6.33l-1.66-2.11Z"/><rect class="cls-2" x="147.86" y="137.35" width="1.26" height="0.83" transform="translate(-53.37 121.04) rotate(-38.12)"/><polygon class="cls-9" points="141.54 127.88 142.41 129 139.81 131.04 139.04 130.04 141.54 127.88"/><path class="cls-5" d="M140.11,126.06l1.43,1.82L139,130l-.13-.16,1.6-1.26-2.3-2.93a10,10,0,0,0-4.41-3.45,5.51,5.51,0,0,1,.71.08A9.13,9.13,0,0,1,140.11,126.06Z"/><path class="cls-4" d="M148.25,138.48l1.66,2.11a9.07,9.07,0,0,1,2.3,6.33,7.85,7.85,0,0,1-3.38,5.54,10.35,10.35,0,0,1-2.9,1.65,9.59,9.59,0,0,1-4.93-3.6l-4.24-5.41,2-1.31,3,3.78q1.46,1.85,3,1.44a2.34,2.34,0,0,0,2.94-.14,2.58,2.58,0,0,0,2.17-.64q2.19-1.71.19-4.25l-3.33-4.24Z"/><rect class="cls-9" x="146.17" y="138.37" width="2.04" height="0.83" transform="translate(-54.28 120.46) rotate(-38.12)"/><path class="cls-7" d="M147.66,137.74l.07.08-1.6,1.26-1.53,1.2,3.33,4.24q2,2.53-.19,4.25l-.13.1a3,3,0,0,1-1.4-.8c1.09-1.08,1-2.39-.18-3.92l-2.72-3.47Z"/><polygon class="cls-1" points="146.83 136.67 147.66 137.74 143.31 140.68 142.7 139.91 146.83 136.67"/><path class="cls-4" d="M138.21,125.69l2.3,2.93-1.6,1.26-1.1-1.4c-1.31-1.67-2.68-2-4.08-1a2.25,2.25,0,0,0-1,0,2.42,2.42,0,0,0-3.07.24q-2.17,1.71-.15,4.29l2.91,3.71-1.77,1.54-1.35-1.72a9.07,9.07,0,0,1-2.3-6.33,7.83,7.83,0,0,1,3.38-5.53,10.55,10.55,0,0,1,2.41-1.46,6.83,6.83,0,0,1,1,0A10,10,0,0,1,138.21,125.69Z"/><path class="cls-7" d="M132.61,121.94c.23,0,.46.09.68.15a5.1,5.1,0,0,0-.5.19,8.89,8.89,0,0,0-4.46,2,7.87,7.87,0,0,0-3.37,5.54,9,9,0,0,0,2.3,6.32l1.92,2.45-1,.83-2.87-3.65a9.07,9.07,0,0,1-2.3-6.33,9.26,9.26,0,0,1,9.55-7.5Z"/><path class="cls-9" d="M146.64,139.74,150,144q2,2.53-.19,4.25a2.58,2.58,0,0,1-2.17.64l.13-.1q2.19-1.71.19-4.25l-3.33-4.24,1.53-1.2Z"/><polygon class="cls-5" points="139.04 130.04 139.81 131.04 138.29 132.23 137.57 131.31 139.04 130.04"/><path class="cls-7" d="M137.81,128.48l1.1,1.4-1.53,1.2L135.77,129a3.77,3.77,0,0,0-2-1.5C135.13,126.49,136.5,126.81,137.81,128.48Z"/><path class="cls-6" d="M128.33,124.28a8.89,8.89,0,0,1,4.46-2,10.55,10.55,0,0,0-2.41,1.46,7.83,7.83,0,0,0-3.38,5.53,9.07,9.07,0,0,0,2.3,6.33l1.35,1.72-1.47,1.27-1.92-2.45a9,9,0,0,1-2.3-6.32A7.87,7.87,0,0,1,128.33,124.28Z"/><path class="cls-5" d="M135.77,129l1.61,2.06-1,.78-2.52-3.21a6.5,6.5,0,0,0-.64-.71c.12-.11.24-.22.38-.33l.12-.09A3.77,3.77,0,0,1,135.77,129Z"/><path class="cls-1" d="M132.73,127.54a2.25,2.25,0,0,1,1,0l-.12.09c-.14.11-.26.22-.38.33A5.84,5.84,0,0,0,132.73,127.54Z"/><path class="cls-9" d="M132.73,127.54a5.84,5.84,0,0,1,.5.4c-1.08,1.08-1,2.4.22,4l1.39,1.78L133.38,135l-2-2.51c-1.35-1.72-1.3-3.14.15-4.29A3.47,3.47,0,0,1,132.73,127.54Z"/><path class="cls-7" d="M129.66,127.78a2.42,2.42,0,0,1,3.07-.24,3.47,3.47,0,0,0-1.17.61c-1.45,1.15-1.5,2.57-.15,4.29l2,2.51-1,.83-2.91-3.71Q127.49,129.49,129.66,127.78Z"/><path class="cls-2" d="M146.21,148.07a3,3,0,0,0,1.4.8,2.34,2.34,0,0,1-2.94.14,3.3,3.3,0,0,0,1.17-.61,4.1,4.1,0,0,0,.37-.33Z"/><path class="cls-9" d="M145.61,147.4a5.77,5.77,0,0,0,.6.67,4.1,4.1,0,0,1-.37.33,3.3,3.3,0,0,1-1.17.61,5,5,0,0,1-1.1-1.07l-3.81-4.86,1.61-1.09Z"/><polygon class="cls-5" points="134.84 133.68 141.37 141.99 139.75 143.08 133.38 134.95 134.84 133.68"/><path class="cls-5" d="M143.57,147.94a5,5,0,0,0,1.1,1.07q-1.54.41-3-1.44l-3-3.78,1-.71Z"/><polygon class="cls-2" points="133.38 134.95 139.75 143.08 138.71 143.79 132.42 135.78 133.38 134.95"/><path class="cls-5" d="M148.32,154.29a6.7,6.7,0,0,1-3.76.51,8.16,8.16,0,0,1-1.18-.3,6.92,6.92,0,0,0,2.55-.39c.22.06.44.1.67.14A6.2,6.2,0,0,0,148.32,154.29Z"/><polygon class="cls-5" points="132.42 135.78 138.71 143.79 136.76 145.1 130.65 137.31 132.42 135.78"/><path class="cls-9" d="M145.93,154.11a6.92,6.92,0,0,1-2.55.39,10,10,0,0,1-4.42-3.45l-3.81-4.86,1.61-1.09,4.24,5.41A9.59,9.59,0,0,0,145.93,154.11Z"/><polygon class="cls-4" points="130.65 137.31 136.76 145.1 135.15 146.19 129.18 138.59 130.65 137.31"/><path class="cls-1" d="M143.38,154.5c-.24,0-.48,0-.72-.08a9.11,9.11,0,0,1-5.6-3.75l-3-3.77,1.05-.71,3.81,4.86A10,10,0,0,0,143.38,154.5Z"/><polygon class="cls-5" points="129.18 138.59 135.15 146.19 134.1 146.9 128.23 139.42 129.18 138.59"/><path class="cls-9" d="M134,147l4.26,5.43a9.26,9.26,0,0,1,2.34,6.49,8.14,8.14,0,0,1-3.48,5.69,9.2,9.2,0,0,1-4.58,2.06,11.17,11.17,0,0,0,2.53-1.52,8.15,8.15,0,0,0,3.49-5.68,9.23,9.23,0,0,0-2.34-6.49l-3.84-4.89Z"/><polygon class="cls-10" points="128.1 139.53 133.96 147 132.34 148.09 126.63 140.8 128.1 139.53"/><path class="cls-8" d="M126.77,137.84l1.33,1.69-1.47,1.27-1.9-2.42a9.2,9.2,0,0,0-5.75-3.81,5.08,5.08,0,0,0-.67-.07l-.57-.17A6.85,6.85,0,0,1,121,134,9.2,9.2,0,0,1,126.77,137.84Z"/><path class="cls-1" d="M132.34,148.09l3.84,4.89a9.23,9.23,0,0,1,2.34,6.49,8.15,8.15,0,0,1-3.49,5.68,11.17,11.17,0,0,1-2.53,1.52,6.55,6.55,0,0,1-1.77,0,5,5,0,0,1-.67-.14,10.46,10.46,0,0,0,3.07-1.72,8.15,8.15,0,0,0,3.49-5.69,9.26,9.26,0,0,0-2.34-6.49l-3-3.81Z"/><polygon class="cls-9" points="126.63 140.8 132.34 148.09 131.29 148.79 125.67 141.63 126.63 140.8"/><path class="cls-2" d="M124.73,138.38l1.9,2.42-1,.83L122.83,138a10,10,0,0,0-4.52-3.51,5.08,5.08,0,0,1,.67.07A9.2,9.2,0,0,1,124.73,138.38Z"/><path class="cls-10" d="M131.29,148.79l3,3.81a9.26,9.26,0,0,1,2.34,6.49,8.15,8.15,0,0,1-3.49,5.69,10.46,10.46,0,0,1-3.07,1.72,9.61,9.61,0,0,1-5.08-3.68l-5-6.38,1.94-1.31,3.71,4.72c1,1.32,2.09,1.85,3.17,1.59a2.46,2.46,0,0,0,3-.15,2.62,2.62,0,0,0,2.19-.65c1.5-1.18,1.54-2.69.11-4.51l-4.73-6Z"/><polygon class="cls-8" points="125.67 141.63 131.29 148.79 129.35 150.11 123.9 143.16 125.67 141.63"/><path class="cls-6" d="M122.83,138l2.84,3.62-1.77,1.53L122.19,141q-2.07-2.66-4.26-1.08a2.18,2.18,0,0,0-1,0,2.48,2.48,0,0,0-3.13.25q-2.26,1.78-.12,4.51l3.4,4.33-1.77,1.54-1.83-2.34a9.24,9.24,0,0,1-2.34-6.49,8.13,8.13,0,0,1,3.49-5.68,10.35,10.35,0,0,1,2.54-1.52,5.68,5.68,0,0,1,1.09,0A10,10,0,0,1,122.83,138Z"/><path class="cls-1" d="M117.08,134.19a6.4,6.4,0,0,1,.66.14c-.17.06-.35.13-.52.21a9,9,0,0,0-4.59,2.06,8.14,8.14,0,0,0-3.48,5.68,9.23,9.23,0,0,0,2.34,6.49l2.4,3.07-1,.83-1-1.31.26-.2-.9-1.15a13.54,13.54,0,0,0-2.12-2.2,8.86,8.86,0,0,1-1.9-5.9,9.58,9.58,0,0,1,9.83-7.72Z"/><path class="cls-5" d="M129.35,150.11l4.73,6c1.43,1.82,1.39,3.33-.11,4.51a2.62,2.62,0,0,1-2.19.65l.14-.11q2.27-1.77.12-4.51l-4.3-5.47Z"/><polygon class="cls-10" points="123.9 143.16 129.35 150.11 127.74 151.2 122.43 144.44 123.9 143.16"/><path class="cls-9" d="M122.19,141l1.71,2.17-1.47,1.28-2.28-2.91a4,4,0,0,0-2.22-1.62Q120.12,138.34,122.19,141Z"/><path class="cls-9" d="M112.63,136.6a9,9,0,0,1,4.59-2.06,10.35,10.35,0,0,0-2.54,1.52,8.13,8.13,0,0,0-3.49,5.68,9.24,9.24,0,0,0,2.34,6.49l1.83,2.34-1.47,1.27-2.4-3.07a9.23,9.23,0,0,1-2.34-6.49A8.14,8.14,0,0,1,112.63,136.6Z"/><path class="cls-1" d="M127.74,151.2l4.3,5.47q2.15,2.75-.12,4.51l-.14.11a3.07,3.07,0,0,1-1.44-.76c1.18-1.14,1.12-2.55-.2-4.23l-3.45-4.39Z"/><polygon class="cls-8" points="122.43 144.44 127.74 151.2 126.69 151.91 121.48 145.27 122.43 144.44"/><path class="cls-5" d="M120.15,141.53l2.28,2.91-1,.83-3.23-4.11a5.46,5.46,0,0,0-.79-.85c.1-.1.21-.19.33-.29l.14-.11A4,4,0,0,1,120.15,141.53Z"/><path class="cls-1" d="M117.93,139.91l-.14.11c-.12.1-.23.19-.33.29a3.09,3.09,0,0,0-.48-.37A2.18,2.18,0,0,1,117.93,139.91Z"/><path class="cls-9" d="M117,139.94a3.09,3.09,0,0,1,.48.37q-1.77,1.69.21,4.22l1.89,2.4-1.47,1.27-2.46-3.12q-2.14-2.75.11-4.51A3.11,3.11,0,0,1,117,139.94Z"/><path class="cls-8" d="M113.85,140.19a2.48,2.48,0,0,1,3.13-.25,3.11,3.11,0,0,0-1.24.63q-2.25,1.77-.11,4.51l2.46,3.12-1,.83-3.4-4.33Q111.59,142,113.85,140.19Z"/><path class="cls-2" d="M130.34,160.53a3.07,3.07,0,0,0,1.44.76,2.46,2.46,0,0,1-3,.15,3.28,3.28,0,0,0,1.23-.63A3,3,0,0,0,130.34,160.53Z"/><path class="cls-5" d="M129.56,159.68a7.29,7.29,0,0,0,.78.85,3,3,0,0,1-.32.28,3.28,3.28,0,0,1-1.23.63,5.13,5.13,0,0,1-1.27-1.22l-4.56-5.8,1.62-1.09Z"/><polygon class="cls-4" points="119.56 146.93 124.58 153.33 122.97 154.42 118.09 148.2 119.56 146.93"/><path class="cls-9" d="M127.52,160.22a5.13,5.13,0,0,0,1.27,1.22c-1.08.26-2.14-.27-3.17-1.59l-3.71-4.72,1-.71Z"/><polygon class="cls-6" points="118.09 148.2 122.97 154.42 121.92 155.13 117.13 149.03 118.09 148.2"/><path class="cls-6" d="M132.5,166.67a6.87,6.87,0,0,1-3.81.51,5.84,5.84,0,0,1-1.23-.31,6.7,6.7,0,0,0,2.6-.37,5,5,0,0,0,.67.14A6.55,6.55,0,0,0,132.5,166.67Z"/><polygon class="cls-1" points="117.13 149.03 121.92 155.13 119.97 156.44 115.36 150.57 117.13 149.03"/><path class="cls-9" d="M130.06,166.5a6.7,6.7,0,0,1-2.6.37,10.08,10.08,0,0,1-4.52-3.5l-4.58-5.84,1.61-1.09,5,6.38A9.61,9.61,0,0,0,130.06,166.5Z"/><polygon class="cls-10" points="115.36 150.57 119.97 156.44 118.36 157.53 113.89 151.84 115.36 150.57"/><path class="cls-10" d="M127.46,166.87a5.05,5.05,0,0,1-.67-.06,7.69,7.69,0,0,1-3.43-1.5c-.19-.28-.4-.57-.63-.86a13.79,13.79,0,0,0-2.51-2.5l-2.91-3.71,1-.71,4.58,5.84A10.08,10.08,0,0,0,127.46,166.87Z"/><polygon class="cls-9" points="113.89 151.84 118.36 157.53 117.31 158.24 112.94 152.67 113.89 151.84"/><path class="cls-5" d="M122.73,164.45c.23.29.44.58.63.86A12.11,12.11,0,0,1,121,163l-.82-1A13.79,13.79,0,0,1,122.73,164.45Z"/><path class="cls-1" d="M123.36,165.31a8.8,8.8,0,0,1,1.8,5.7,8.07,8.07,0,0,1-3.47,5.67,8.72,8.72,0,0,1-4.47,2,10.94,10.94,0,0,0,2.43-1.47,8.07,8.07,0,0,0,3.47-5.67A9.51,9.51,0,0,0,120.7,165a12.12,12.12,0,0,0-4.61-3.75,13.13,13.13,0,0,0-2.17-.72l1.1-.74a14.43,14.43,0,0,1,3.11.91,11,11,0,0,1,2.09,1.25l.82,1A12.11,12.11,0,0,0,123.36,165.31Z"/><path class="cls-7" d="M109.15,147.81c.14.2.28.39.44.59l2.32,3-3.86,3-.52-.65,2.6-2-.9-1.15q-2.64-3.37-5.67-3.91a4.7,4.7,0,0,0-.84-.1l-.45-.14a6.27,6.27,0,0,1,3.33-.31A7.76,7.76,0,0,1,109.15,147.81Z"/><path class="cls-2" d="M109.23,150.55l.9,1.15-2.6,2-.6-.77-.31-.38,1.61-1.27-.9-1.15a10.54,10.54,0,0,0-4.61-3.63,4.7,4.7,0,0,1,.84.1Q106.59,147.18,109.23,150.55Z"/><path class="cls-5" d="M116.09,161.25A12.12,12.12,0,0,1,120.7,165a9.51,9.51,0,0,1,2.42,6.55,8.07,8.07,0,0,1-3.47,5.67,10.94,10.94,0,0,1-2.43,1.47,6,6,0,0,1-1.74-.05q-.32-.06-.63-.15a10.06,10.06,0,0,0,2.9-1.64,8.07,8.07,0,0,0,3.47-5.67c.17-2.1-.64-4.28-2.43-6.56a12.21,12.21,0,0,0-4.6-3.75l-.48-.2.21-.14A13.13,13.13,0,0,1,116.09,161.25Z"/><path class="cls-2" d="M115,159.79l-1.1.74c-.55-.13-1.14-.24-1.77-.34a26.41,26.41,0,0,0-5.12-.68c-.65,0-1.25-.08-1.82-.14l.83-.72a22.58,22.58,0,0,0,4.93.69A29.59,29.59,0,0,1,115,159.79Z"/><path class="cls-10" d="M107.33,150.17l.9,1.15-1.61,1.27a3.61,3.61,0,0,0-1.88-1.27,2.51,2.51,0,0,0-2,.54h0a2.07,2.07,0,0,0-1,0,2.42,2.42,0,0,0-.91-.4,2.55,2.55,0,0,0-2.14.62q-2.18,1.71-.09,4.36a6.58,6.58,0,0,0,3,2.18,13.29,13.29,0,0,0,2.62.6h0q.42.12.9.21l-3.77,3.27a11.56,11.56,0,0,1-3-2.72A9.2,9.2,0,0,1,96,153.6,8,8,0,0,1,99.45,148a10,10,0,0,1,2.37-1.44,6.77,6.77,0,0,1,.9,0A10.54,10.54,0,0,1,107.33,150.17Z"/><path class="cls-10" d="M114.19,160.87a12.21,12.21,0,0,1,4.6,3.75c1.79,2.28,2.6,4.46,2.43,6.56a8.07,8.07,0,0,1-3.47,5.67,10.06,10.06,0,0,1-2.9,1.64,9.94,9.94,0,0,1-5.06-3.75l-1.24-1.59,1.6-1.26.08.1c1,1.3,2.06,1.82,3.13,1.56a2.46,2.46,0,0,0,3-.15,2.6,2.6,0,0,0,2.19-.66,2.69,2.69,0,0,0,1.17-2,4.05,4.05,0,0,0-1.09-2.58,7.48,7.48,0,0,0-3.2-2.45,19,19,0,0,0-5.44-.89c-.77,0-1.49-.1-2.18-.18l5.91-4Z"/><path class="cls-6" d="M113.71,160.67l-5.91,4a18.31,18.31,0,0,1-5-1.16,10.67,10.67,0,0,1-1.5-.78l3.77-3.27a28.85,28.85,0,0,0,3.82.42,31.75,31.75,0,0,1,3.22.31A13.12,13.12,0,0,1,113.71,160.67Z"/><path class="cls-7" d="M102.27,146.4a4.7,4.7,0,0,0-.45.17,8.65,8.65,0,0,0-4.41,2,7.94,7.94,0,0,0-3.42,5.6,9.18,9.18,0,0,0,2.33,6.4,11.26,11.26,0,0,0,3.83,3.2l-.31.27c-.33-.1-.65-.22-.94-.34a11.28,11.28,0,0,1-4.48-3.5,9.2,9.2,0,0,1-2.33-6.41,8,8,0,0,1,3.42-5.6,7.68,7.68,0,0,1,6.15-1.91A6,6,0,0,1,102.27,146.4Z"/><path class="cls-1" d="M106.93,153l.6.77-1.52,1.2-.91-1.16,1.52-1.19Z"/><path class="cls-9" d="M106.62,152.59l-1.52,1.19-.21-.27a4.12,4.12,0,0,0-2.19-1.65,2.51,2.51,0,0,1,2-.54A3.61,3.61,0,0,1,106.62,152.59Z"/><path class="cls-7" d="M118.62,168.19a4.05,4.05,0,0,1,1.09,2.58,2.69,2.69,0,0,1-1.17,2,2.6,2.6,0,0,1-2.19.66.79.79,0,0,0,.15-.12,2.68,2.68,0,0,0,1.17-2,4,4,0,0,0-1.09-2.57,7.41,7.41,0,0,0-3.2-2.45,12.67,12.67,0,0,0-2.75-.65,19.38,19.38,0,0,0-3.47-.54l.64-.43c.69.08,1.41.14,2.18.18a19,19,0,0,1,5.44.89A7.48,7.48,0,0,1,118.62,168.19Z"/><path class="cls-9" d="M97.41,148.55a8.65,8.65,0,0,1,4.41-2A10,10,0,0,0,99.45,148,8,8,0,0,0,96,153.6,9.2,9.2,0,0,0,98.36,160a11.56,11.56,0,0,0,3,2.72l-1.19,1a11.26,11.26,0,0,1-3.83-3.2,9.18,9.18,0,0,1-2.33-6.4A7.94,7.94,0,0,1,97.41,148.55Z"/><path class="cls-7" d="M104.89,153.51l.21.27-1,.78L103,153.13a8.26,8.26,0,0,0-.77-.85,4.33,4.33,0,0,1,.38-.34l.1-.08A4.12,4.12,0,0,1,104.89,153.51Z"/><path class="cls-6" d="M116.58,168.74a4,4,0,0,1,1.09,2.57,2.68,2.68,0,0,1-1.17,2,.79.79,0,0,1-.15.12,3,3,0,0,1-1.43-.77,2.49,2.49,0,0,0,.85-1.69,4.05,4.05,0,0,0-1.09-2.58,7.48,7.48,0,0,0-3.2-2.45,7.75,7.75,0,0,0-.85-.27,12.67,12.67,0,0,1,2.75.65A7.41,7.41,0,0,1,116.58,168.74Z"/><path class="cls-6" d="M101.71,151.89a5.34,5.34,0,0,1,.51.39q-1.59,1.64.28,4a6.64,6.64,0,0,0,3,2.17l.51.17-.83.72c-.35,0-.68-.07-1-.12h0a6.1,6.1,0,0,1-.72-.23,6.56,6.56,0,0,1-3-2.17q-2.09-2.65.09-4.37A3,3,0,0,1,101.71,151.89Z"/><path class="cls-5" d="M101.71,151.89a3,3,0,0,0-1.15.59q-2.18,1.71-.09,4.37a6.56,6.56,0,0,0,3,2.17,6.1,6.1,0,0,0,.72.23,13.29,13.29,0,0,1-2.62-.6,6.58,6.58,0,0,1-3-2.18q-2.08-2.66.09-4.36a2.55,2.55,0,0,1,2.14-.62A2.42,2.42,0,0,1,101.71,151.89Z"/><path class="cls-5" d="M114.92,172.63a3,3,0,0,0,1.43.77,2.46,2.46,0,0,1-3,.15,3.27,3.27,0,0,0,1.24-.64A2.92,2.92,0,0,0,114.92,172.63Z"/><path class="cls-7" d="M114.17,171.82a6,6,0,0,0,.75.81,2.92,2.92,0,0,1-.32.28,3.27,3.27,0,0,1-1.24.64,5.24,5.24,0,0,1-1.23-1.19l-1-1.25,1.52-1.19Z"/><path class="cls-9" d="M107.8,164.67l-.64.43L106,165c-1.19-.07-2.28-.18-3.26-.33a12.46,12.46,0,0,1-2-.64c-.22-.09-.44-.19-.65-.3l1.19-1a10.67,10.67,0,0,0,1.5.78A18.31,18.31,0,0,0,107.8,164.67Z"/><path class="cls-9" d="M112.13,172.36a5.24,5.24,0,0,0,1.23,1.19c-1.07.26-2.11-.26-3.13-1.56l-.08-.1,1-.78Z"/><rect class="cls-7" x="109.76" y="170.76" width="1.26" height="0.83" transform="translate(-82.12 104.66) rotate(-38.12)"/><path class="cls-7" d="M117.22,178.69a6.61,6.61,0,0,1-3.78.49,7.13,7.13,0,0,1-1.1-.29,6.32,6.32,0,0,0,2.51-.4q.32.09.63.15A6,6,0,0,0,117.22,178.69Z"/><rect class="cls-9" x="108.07" y="171.78" width="2.04" height="0.83" transform="translate(-83.03 104.07) rotate(-38.12)"/><path class="cls-1" d="M108.73,170.08l.91,1.16L108,172.5l-1.53,1.2,1.24,1.58a10.44,10.44,0,0,0,4.59,3.61,5.6,5.6,0,0,1-.8-.09c-2-.35-3.92-1.65-5.69-3.9l-1.24-1.58Z"/><path class="cls-9" d="M114.85,178.49a6.32,6.32,0,0,1-2.51.4,10.44,10.44,0,0,1-4.59-3.61l-1.24-1.58,1.53-1.2.51.65,1.24,1.59A9.94,9.94,0,0,0,114.85,178.49Z"/><path class="cls-11" d="M267.87,158.71a39.57,39.57,0,0,1-.83,8.39v-1A39.39,39.39,0,0,0,267.87,158.71Z"/><path class="cls-12" d="M267.59,155.28a28.48,28.48,0,0,1,.28,3.43,39.39,39.39,0,0,1-.83,7.37v-4.57Z"/><path class="cls-11" d="M266.66,150.05l-.07.44c-.71-4.75-4.51-11.43-4.51-11.43a34.16,34.16,0,0,0-4.85-4.48,27.12,27.12,0,0,0-7.5,2.09c0-.29,0-.6,0-.9l.09.09c2.29-1.28,7.42-2.29,7.42-2.29h0a34.42,34.42,0,0,1,4.85,4.49S266.2,145.28,266.66,150.05Z"/><path class="cls-13" d="M266.66,151.06l-1.46,9.16a11.56,11.56,0,0,1-4.92,2.21,23.2,23.2,0,0,1-3,.54s-5.08-8.82-7.85-11.55a4.18,4.18,0,0,0-.4-.36s.05-.33.11-.92c2.7,2.37,8.14,11.81,8.14,11.81,5.77-.64,8-2.75,8-2.75l1.39-8.71C266.62,150.68,266.64,150.87,266.66,151.06Z"/><path class="cls-12" d="M266.59,150.49l-1.39,8.71s-2.2,2.11-8,2.75c0,0-5.44-9.44-8.14-11.81a106.12,106.12,0,0,0,.65-11.82v-.06c0-.52,0-1,0-1.59a27.12,27.12,0,0,1,7.5-2.09,34.16,34.16,0,0,1,4.85,4.48S265.88,145.74,266.59,150.49Z"/><path class="cls-12" d="M265.56,160.85l.37,6.78-.05.15-.32-5.91c-1.16,1.47-8.7,2.8-8.7,2.8l-.2-.06c.08-.32.15-.64.2-1,0,0,1.66-.29,3.54-.75C262.53,162.37,265,161.63,265.56,160.85Z"/><path class="cls-11" d="M265.88,167.78l.05.87s-.27.9-.8,2.31l-.05-.89C265.51,168.93,265.78,168.1,265.88,167.78Z"/><path class="cls-13" d="M265.56,161.87l.32,5.91c-.1.32-.37,1.15-.8,2.29l-.21-4c-1.12,1.42-8.24,2.71-8.68,2.79l-.64-.29a13.94,13.94,0,0,0,1.31-3.87S264.4,163.34,265.56,161.87Z"/><path class="cls-12" d="M255.15,185.6a12.69,12.69,0,0,1-5.72,1.62v-.05c2.64,0,7-2.22,7-2.22,4.45-3.73,7.41-10.46,8.73-14l.1,1.86s-3.29,11.08-9.52,16.3c0,0-4.86,2.47-7.42,2.2v0a30.94,30.94,0,0,0,6.86-4.68,13.34,13.34,0,0,1-2.67,1.14A25.36,25.36,0,0,0,255.15,185.6Z"/><path class="cls-13" d="M265.08,170.07l.05.89c-1.32,3.53-4.28,10.26-8.73,14,0,0-4.33,2.2-7,2.22l-.45,0-.47-5.77.08-.09.39,4.84c2.57.27,7.42-2.2,7.42-2.2C260.8,180.24,263.74,173.63,265.08,170.07Z"/><path class="cls-11" d="M264.87,166l.21,4c-1.34,3.56-4.28,10.17-8.68,13.86,0,0-4.85,2.47-7.42,2.2l-.39-4.84c2.11-2.22,6.8-7.62,7.58-12.46h0C256.63,168.75,263.75,167.46,264.87,166Z"/><polygon class="cls-12" points="258.32 132.09 260.89 135.39 258.52 133.36 258.32 133.11 258.32 132.09"/><polygon class="cls-11" points="258.52 133.36 260.89 136.41 258.32 134.21 258.32 133.19 258.52 133.36"/><path class="cls-14" d="M260.28,162.43l.12.47c-1.88.46-3.54.75-3.54.75-.05.32-.12.64-.2,1-1,3.75-4,7.68-6.12,10.12l-.51-.18A31.48,31.48,0,0,0,256,164.07l-.21-.41.21-.61s-3.75-7.4-7.19-11.43l.62-.2c2.77,2.73,7.85,11.55,7.85,11.55A23.2,23.2,0,0,0,260.28,162.43Z"/><path class="cls-15" d="M258.27,128.83v1.74l-1.06.22a52.78,52.78,0,0,0-20.49-11.09c.08-.63.18-1.35.31-2.17A52.29,52.29,0,0,1,258.27,128.83Z"/><path class="cls-13" d="M257.23,133.56h0s-5.13,1-7.42,2.29l-.09-.09v-.1A26.6,26.6,0,0,1,257.23,133.56Z"/><path class="cls-15" d="M257.23,132.55v1a26.6,26.6,0,0,0-7.51,2.11v.1a40.24,40.24,0,0,0-4.81-3.79v-.09a9.65,9.65,0,0,0-2.13-2.29,41.89,41.89,0,0,1,7,5.24C252.1,133.56,257.23,132.55,257.23,132.55Z"/><path class="cls-16" d="M257.23,131.83v.72s-5.13,1-7.42,2.29a41.89,41.89,0,0,0-7-5.24,44.34,44.34,0,0,0-7.33-4.6c.07-1,.22-2.43.53-4.47l.63.16c-.37,3.51,0,3.65,0,3.65,8,2.47,14.19,8.51,14.19,8.51a25.39,25.39,0,0,1,5.44-1.84C256.61,131.27,256.92,131.55,257.23,131.83Z"/><path class="cls-12" d="M256.66,164.61l.2.06a13.94,13.94,0,0,1-1.31,3.87,40.14,40.14,0,0,1-7.22,9.56l-.08-.95s1-.93,2.29-2.42C252.68,172.29,255.69,168.36,256.66,164.61Z"/><path class="cls-17" d="M257.21,130.79l-.92.22a53,53,0,0,0-19.68-10.32c0-.3.07-.63.11-1A52.78,52.78,0,0,1,257.21,130.79Z"/><path class="cls-13" d="M256.19,168.83h0c-.78,4.84-5.47,10.24-7.58,12.46l-.26-3.19a40.14,40.14,0,0,0,7.22-9.56Z"/><path class="cls-17" d="M256,163.05l-.21.61c-.88-1.68-4.39-8.26-7.49-11.59,0,0-1,.55-2.51,1.32,0-.33,0-.68.07-1,1.46-.75,2.44-1.29,2.44-1.29q.25.27.51.57C252.2,155.65,256,163.05,256,163.05Z"/><path class="cls-13" d="M255.74,163.66l.21.41A31.48,31.48,0,0,1,250,174.55a23.93,23.93,0,0,1-2.6,2.7h0a33.1,33.1,0,0,0,3.52-4.82h0A31.38,31.38,0,0,0,255.74,163.66Z"/><path class="cls-16" d="M256.29,131a25.39,25.39,0,0,0-5.44,1.84s-6.23-6-14.19-8.51c0,0-.42-.14,0-3.65A53,53,0,0,1,256.29,131Z"/><path class="cls-16" d="M248.25,152.07c3.1,3.33,6.61,9.91,7.49,11.59a31.38,31.38,0,0,1-4.8,8.76,30.08,30.08,0,0,0,2.8-6.14s-4.12-8.15-7.69-12l-.42.23c0-.33.08-.7.11-1.12C247.24,152.62,248.25,152.07,248.25,152.07Z"/><path class="cls-16" d="M252.48,187.75a13.34,13.34,0,0,0,2.67-1.14,30.94,30.94,0,0,1-6.86,4.68l-.08-1A35.73,35.73,0,0,0,252.48,187.75Z"/><path class="cls-16" d="M255.15,185.6a25.36,25.36,0,0,1-2.67,2.15,9.72,9.72,0,0,1-4.23.4l-.21.1-.08-1,.29-.15a7.81,7.81,0,0,0,1.18.09A12.69,12.69,0,0,0,255.15,185.6Z"/><path class="cls-18" d="M246.05,154.28c3.57,3.85,7.69,12,7.69,12a30.08,30.08,0,0,1-2.8,6.14h0a27.69,27.69,0,0,1-3.5,3.81c-8.52.18-13.56-3.39-13.56-3.39V161.21c4-1.75,11.53-5.58,11.53-5.58a4.17,4.17,0,0,0,.23-1.12Z"/><path class="cls-19" d="M247.43,176.24a27.69,27.69,0,0,0,3.5-3.81,33.1,33.1,0,0,1-3.52,4.82c-8.51.18-13.54-3.38-13.54-3.38v-1S238.91,176.42,247.43,176.24Z"/><path class="cls-14" d="M249.74,138.26v.06a105.62,105.62,0,0,1-.76,11.73.48.48,0,0,1,.11.09c-.06.59-.11.92-.11.92a4.18,4.18,0,0,1,.4.36l-.62.2q-.25-.3-.51-.57s-1,.54-2.44,1.29c0-.28,0-.56,0-.86l1.76-.88c.64-1.37.64-13.83.64-13.83h0v-1a12.32,12.32,0,0,0-3.34-3.23V132a40.24,40.24,0,0,1,4.81,3.79c0,.3,0,.61,0,.9h0C249.73,137.21,249.73,137.74,249.74,138.26Z"/><path class="cls-18" d="M248.25,188.15a9.72,9.72,0,0,0,4.23-.4,35.73,35.73,0,0,1-4.27,2.56l-.17-2.06Z"/><path class="cls-12" d="M249.43,187.17v.05a7.81,7.81,0,0,1-1.18-.09l-.29.15-.4-4.94s.37-.35.95-1l.47,5.77Z"/><path class="cls-18" d="M248.21,190.31l.08,1A57.27,57.27,0,0,1,234.91,196v-1A57,57,0,0,0,248.21,190.31Z"/><path class="cls-13" d="M248.25,136.77h0s0,12.46-.64,13.83l-1.76.88c0-.33,0-.68.05-1l1.71-.86C248.14,148.45,248.23,139.76,248.25,136.77Z"/><path class="cls-12" d="M248.25,135.76v1a12.36,12.36,0,0,0-3.35-3.22c0-.41,0-.75,0-1A12.32,12.32,0,0,1,248.25,135.76Z"/><path class="cls-16" d="M248,188.25l.17,2.06a57,57,0,0,1-13.3,4.71V195Z"/><path class="cls-11" d="M248.25,136.77c0,3-.11,11.68-.64,12.82l-1.71.86c.15-3.95.15-8.65.15-8.65a7.75,7.75,0,0,0-1.28-1.53c.09-2.41.12-5.06.13-6.72A12.36,12.36,0,0,1,248.25,136.77Z"/><polygon class="cls-17" points="247.96 187.28 248.04 188.25 234.91 194.96 234.91 193.95 247.96 187.28"/><path class="cls-17" d="M233.87,173.87s5,3.56,13.54,3.38a23.77,23.77,0,0,1-2.19,2.22c-8.52.18-13.56-3.39-13.56-3.39V162a13.93,13.93,0,0,0,2.21-.83v12.66Z"/><path class="cls-11" d="M246.05,141.8s0,4.7-.15,8.65c-3.4,1.7-10.77,5.34-12,5.55,0,0-12.91-7.21-14.32-9.61l.06-1c4.27,3,10.92,6.7,10.92,6.7,1.65-.28,13.74-6.41,13.74-6.41a26.75,26.75,0,0,0,.5-5.45A7.75,7.75,0,0,1,246.05,141.8Z"/><path class="cls-13" d="M245.9,150.45c0,.35,0,.7-.05,1-3.41,1.71-10.72,5.32-12,5.53,0,0-13.28-7.41-14.38-9.7l.06-.92c1.41,2.4,14.32,9.61,14.32,9.61C235.13,155.79,242.5,152.15,245.9,150.45Z"/><path class="cls-11" d="M245.85,151.48c0,.3,0,.58,0,.86-3.51,1.81-9.8,4.89-11.94,4.79V157C235.13,156.8,242.44,153.19,245.85,151.48Z"/><path class="cls-19" d="M245.81,152.34c0,.37-.05.72-.07,1-3.53,1.82-9.75,4.85-11.87,4.76v-1C236,157.23,242.3,154.15,245.81,152.34Z"/><path class="cls-16" d="M245.74,153.39c0,.42-.07.79-.11,1.12a91.07,91.07,0,0,1-11.76,5.42v-1.78C236,158.24,242.21,155.21,245.74,153.39Z"/><path class="cls-20" d="M245.63,154.51a4.17,4.17,0,0,1-.23,1.12s-7.55,3.83-11.53,5.58v-1.28A91.07,91.07,0,0,0,245.63,154.51Z"/><path class="cls-16" d="M244.91,131.89V132a36,36,0,0,0-9-4.55l-.33-.16h0a4.29,4.29,0,0,1-.14-1.75c.05.76.19.8.19.8a33.74,33.74,0,0,1,7.17,3.28A9.65,9.65,0,0,1,244.91,131.89Z"/><path class="cls-14" d="M244.91,132v.55a62.31,62.31,0,0,0-9-5.1A36,36,0,0,1,244.91,132Z"/><path class="cls-11" d="M244.91,132.53c0,.27,0,.61,0,1a70.11,70.11,0,0,0-11-6,43.08,43.08,0,0,0-13.55,6l-.23,3.79-.06,0,.29-4.84a43.71,43.71,0,0,1,12.57-5.73l1-.12a.67.67,0,0,1,0-.1c.09,0,.72.31,1.68.76h0c0,.06.05.07.05.07l.28.09A62.31,62.31,0,0,1,244.91,132.53Z"/><path class="cls-12" d="M244.9,133.55c0,1.66,0,4.31-.13,6.72-3.91-3.76-13.11-7.72-13.11-7.72a41.33,41.33,0,0,0-11.57,4.71l.23-3.79a43.08,43.08,0,0,1,13.55-6A70.11,70.11,0,0,1,244.9,133.55Z"/><path class="cls-21" d="M244.77,140.27a26.75,26.75,0,0,1-.5,5.45s-12.09,6.13-13.74,6.41c0,0-6.65-3.71-10.92-6.7l.48-8.17a41.33,41.33,0,0,1,11.57-4.71S240.86,136.51,244.77,140.27Z"/><path class="cls-17" d="M235.45,125a44.34,44.34,0,0,1,7.33,4.6,33.74,33.74,0,0,0-7.17-3.28s-.14,0-.19-.8C235.43,125.36,235.44,125.19,235.45,125Z"/><path class="cls-17" d="M236.72,119.7c0,.36-.08.69-.11,1l-.63-.16c-.31,2-.46,3.47-.53,4.47l0,0a36.87,36.87,0,0,1,.43-4.5c0-.31.09-.63.14-1C236,119.52,236.24,119.57,236.72,119.7Z"/><path class="cls-12" d="M235.16,120.38l.68.1a36.87,36.87,0,0,0-.43,4.5c-.43-.23-.86-.44-1.26-.64A15.77,15.77,0,0,1,235.16,120.38Z"/><path class="cls-15" d="M235.41,125c0,.21,0,.39,0,.54a4.29,4.29,0,0,0,.14,1.75c-1-.45-1.59-.72-1.68-.76,0-.28.12-1.15.27-2.17C234.55,124.54,235,124.75,235.41,125Z"/><path class="cls-13" d="M234.8,120.31l.36.07a15.77,15.77,0,0,0-1,4l-.13-.07A25.14,25.14,0,0,1,234.8,120.31Z"/><path class="cls-13" d="M235.16,119.36a6.79,6.79,0,0,0-.36,1,28.19,28.19,0,0,0-2.88-.31,4.74,4.74,0,0,1,.26-.64,25.56,25.56,0,0,0-3.82-.4A30.43,30.43,0,0,1,235.16,119.36Z"/><path class="cls-11" d="M234.8,120.31a25.14,25.14,0,0,0-.78,4c-1.18-.58-2.17-1-2.79-1.32a18,18,0,0,1,.69-3A28.19,28.19,0,0,1,234.8,120.31Z"/><path class="cls-14" d="M234,124.27l.13.07c-.15,1-.24,1.89-.27,2.17h0l-1,.22c-6.36,1-13.4,5.74-13.4,5.74a10.6,10.6,0,0,0-2.69-.9v-.32l.81-.5a9.24,9.24,0,0,1,1.87.7A44.4,44.4,0,0,1,231,126.11a18.43,18.43,0,0,1,2.85-.52S233.92,125.05,234,124.27Z"/><path class="cls-12" d="M234,124.27c-.1.78-.15,1.32-.15,1.32a18.43,18.43,0,0,0-2.85.52l-.14-.52s.11-1.22.35-2.64C231.85,123.23,232.84,123.69,234,124.27Z"/><path class="cls-16" d="M233.87,159.93v1.28a13.93,13.93,0,0,1-2.21.83v-1.67A7.26,7.26,0,0,0,233.87,159.93Z"/><path class="cls-22" d="M232.18,119.36a4.74,4.74,0,0,0-.26.64A40.27,40.27,0,0,0,208,126.42s-.06,1.11-.07,2.26c0-1.41.07-3.27.07-3.27A40.48,40.48,0,0,1,228.36,119,25.56,25.56,0,0,1,232.18,119.36Z"/><path class="cls-12" d="M231.92,120a18,18,0,0,0-.69,3l-.7-.31a42.81,42.81,0,0,0-13.56,6l-.11,2a42.54,42.54,0,0,0-8.82-.67,9.26,9.26,0,0,1-.07-1.21c0-1.15.07-2.26.07-2.26A40.27,40.27,0,0,1,231.92,120Z"/><path class="cls-14" d="M231.23,123c-.24,1.42-.35,2.64-.35,2.64-5.08.49-10.87,3.71-13.26,5.16l-.76-.19.11-2a42.81,42.81,0,0,1,13.56-6Z"/><path class="cls-11" d="M230.88,125.59l.14.52a44.4,44.4,0,0,0-11.53,5.34,9.24,9.24,0,0,0-1.87-.7C220,129.3,225.8,126.08,230.88,125.59Z"/><path class="cls-14" d="M205.06,125.41a40.29,40.29,0,0,1,23.3-6.45A40.48,40.48,0,0,0,208,125.41s-.1,1.86-.07,3.27c0,.42,0,.85,0,1.23l-1.3,0v-3.37S206,127,205,127.9C205,126.67,205.06,125.41,205.06,125.41Z"/><path class="cls-23" d="M232.89,126.73a43.71,43.71,0,0,0-12.57,5.73L220,137.3c-.59.35-1.06.64-1.39.85l.44-5a18.31,18.31,0,0,0-2.33-.81l.05-.73a10.6,10.6,0,0,1,2.69.9S226.53,127.75,232.89,126.73Z"/><path class="cls-11" d="M220.09,137.26l-.48,8.17-.07,0,.49-8.09Z"/><path class="cls-19" d="M220,137.3l-.49,8.09c-.51-.36-1-.72-1.43-1l.53-6.19C219,137.94,219.44,137.65,220,137.3Z"/><path class="cls-15" d="M219.08,133.11l-.44,5c-.34.22-.53.36-.53.36l0,.34.09-5.11c-.49-.21-1-.39-1.48-.55l.05-.89A18.31,18.31,0,0,1,219.08,133.11Z"/><path class="cls-15" d="M218.64,138.15l-.53,6.19-.12-.09.1-5.4,0-.34S218.3,138.37,218.64,138.15Z"/><path class="cls-17" d="M218.18,133.74l-.09,5.11-.31,5.23a6.35,6.35,0,0,1-1.63-1.66l.55-9.23C217.2,133.35,217.69,133.53,218.18,133.74Z"/><path class="cls-17" d="M218.11,144.34l-.15,1.78,0-1.87Z"/><path class="cls-17" d="M217.78,144.08l.31-5.23-.1,5.4Z"/><path class="cls-18" d="M218,144.25l0,1.87,0,.26-.31.17.15-2.47Z"/><polygon class="cls-24" points="217.94 146.38 217.96 146.12 217.94 147.4 217.57 147.6 217.63 146.55 217.94 146.38"/><path class="cls-18" d="M217.78,144.08l-.15,2.47-12.15,6.7s-.22-.13-.58-.37l8.51-4.69.63-13.55a20.91,20.91,0,0,0-7.69-1.52c.28-.23.57-.45.87-.65a23.33,23.33,0,0,1,9.48.72l-.55,9.23A6.35,6.35,0,0,0,217.78,144.08Z"/><path class="cls-24" d="M205.48,153.25l12.15-6.7-.06,1-12.09,6.66a14.52,14.52,0,0,1-1.37-.94l.79-.44C205.26,153.12,205.48,153.25,205.48,153.25Z"/><path class="cls-19" d="M216.86,130.56l.76.19-.81.5Z"/><path class="cls-11" d="M216.86,130.56l-.05.69-.3.2c-2.12-1.11-5.9-1.45-8.54-1.54,0-.38,0-.81,0-1.23a9.26,9.26,0,0,0,.07,1.21A42.54,42.54,0,0,1,216.86,130.56Z"/><path class="cls-23" d="M216.81,131.25v.32a42.44,42.44,0,0,0-8.76-.66,8,8,0,0,1-.07-1c2.64.09,6.42.43,8.54,1.54Z"/><path class="cls-11" d="M216.8,131.57l-.05.73a32.11,32.11,0,0,0-9.53-.85,14.05,14.05,0,0,0-2,1.66l-1.17,0a10.9,10.9,0,0,1,2.6-2.15v-1.12l1.3,0a8,8,0,0,0,.07,1A42.44,42.44,0,0,1,216.8,131.57Z"/><path class="cls-17" d="M216.75,132.3l-.05.89a23.33,23.33,0,0,0-9.48-.72c-.3.2-.59.42-.87.65h-1.11a14.05,14.05,0,0,1,2-1.66A32.11,32.11,0,0,1,216.75,132.3Z"/><path class="cls-16" d="M214,134.64l-.63,13.55-8.51,4.69c-1.42-1-5.07-3.76-6.06-7.46.58-1.77,3.09-8.69,7.51-12.3A20.91,20.91,0,0,1,214,134.64Z"/><path class="cls-14" d="M206.67,130v1a10.9,10.9,0,0,0-2.6,2.15l-.92.06A12.44,12.44,0,0,1,206.67,130Z"/><path class="cls-12" d="M206.67,129.88V130a12.44,12.44,0,0,0-3.52,3.22l-.46,0c-4.82,3.26-7.59,10.6-8.32,12.76l-1.45,1c2.72-9.08,9-15.48,12.07-18.14a6.1,6.1,0,0,0,.07,1S205.69,129.87,206.67,129.88Z"/><path class="cls-11" d="M206.67,127.52v2.36c-1,0-1.61,0-1.61,0a6.1,6.1,0,0,1-.07-1C206,128,206.67,127.52,206.67,127.52Z"/><path class="cls-13" d="M206.67,126.51v1s-.65.48-1.68,1.39c0-.31,0-.66,0-1C206,127,206.67,126.51,206.67,126.51Z"/><path class="cls-18" d="M205.24,133.11h1.11c-4.42,3.61-6.93,10.53-7.51,12.3a5.82,5.82,0,0,1-.14-.6S200.88,137.51,205.24,133.11Z"/><path class="cls-22" d="M205,127.9c0,.35,0,.7,0,1-3,2.66-9.35,9.06-12.07,18.14l-.36.25C195.05,137.56,201.8,130.69,205,127.9Z"/><path class="cls-19" d="M204.9,152.88l-.79.44c-1.79-1.36-4.78-4.07-5.41-7.48l.14-.42C199.83,149.12,203.48,151.91,204.9,152.88Z"/><path class="cls-17" d="M204.07,133.15l1.17,0c-4.36,4.4-6.54,11.71-6.54,11.71a5.82,5.82,0,0,0,.14.6l-.14.42c.63,3.41,3.62,6.12,5.41,7.48L201,155.06s-5.49-3.26-6.68-8l2.69-1.9S200.14,137.42,204.07,133.15Z"/><path class="cls-18" d="M203.15,133.21l.92-.06c-3.93,4.27-7.11,12-7.11,12l-2.69,1.9c0-.15-.07-.31-.1-.47l.2-.61,2.59-1.84A52.84,52.84,0,0,1,203.15,133.21Z"/><path class="cls-11" d="M202.69,133.26l.46,0a52.84,52.84,0,0,0-6.19,11L194.37,146C195.1,143.86,197.87,136.52,202.69,133.26Z"/><polygon class="cls-21" points="246.42 172.7 238.61 180.78 217.41 195.42 246.42 172.7"/><polygon class="cls-19" points="245.38 155.74 237.58 163.82 216.38 178.46 245.38 155.74"/><polygon class="cls-11" points="241.6 135.94 233.78 144.02 212.59 158.66 241.6 135.94"/><polygon class="cls-21" points="237.96 189.03 224.04 203.43 186.28 229.52 237.96 189.03"/><polygon class="cls-21" points="227.09 179.47 224.04 186.62 188.66 211.76 227.09 179.47"/><polygon class="cls-17" points="227.09 179.47 188.66 211.76 164.01 226.05 207.88 190.32 217 185.17 195.93 201.68 217.13 187.04 221.24 182.78 227.09 179.47"/><polygon class="cls-11" points="225.47 167.1 183.09 205.49 153.81 223.16 225.47 167.1"/><polygon class="cls-19" points="224.94 178.95 221.24 182.78 217 185.17 224.94 178.95"/><polygon class="cls-13" points="224.04 186.62 143.87 251.79 188.66 211.76 224.04 186.62"/><polygon class="cls-18" points="222.59 158.85 191.31 188.25 184.13 192.73 190.1 186.55 174.72 198.6 157.63 209.27 222.59 158.85"/><polygon class="cls-12" points="222.59 158.85 157.63 209.27 157.63 209.27 114.45 242.79 176.73 188.95 179.04 187.44 174.16 191.26 192.23 178.78 222.59 158.85"/><polygon class="cls-19" points="221.24 182.78 217.13 187.04 195.93 201.68 217 185.17 221.24 182.78"/><path class="cls-13" d="M217.22,152.88l-60.63,46.69L179,175.82l13.55-8.72,3.78-9.62Zm-18,12.38,7.82-8.08-29,22.72Z"/><polygon class="cls-18" points="209.56 139.69 201.75 147.77 180.55 162.41 209.56 139.69"/><polygon class="cls-19" points="207.06 157.18 199.25 165.26 178.06 179.9 207.06 157.18"/><polygon class="cls-19" points="203.16 168.54 195.35 176.62 192.23 178.78 179.04 187.44 203.16 168.54"/><polygon class="cls-21" points="202.53 126.51 194.17 135.86 163.48 157.48 202.53 126.51"/><polygon class="cls-17" points="196.35 157.48 192.57 167.1 179.02 175.82 196.35 157.48"/><polygon class="cls-21" points="196.35 157.48 179.02 175.82 139.36 201.37 196.35 157.48"/><polygon class="cls-21" points="192.23 178.78 174.16 191.26 179.04 187.44 192.23 178.78"/><polygon class="cls-19" points="190.1 186.55 184.13 192.73 174.72 198.6 190.1 186.55"/><polygon class="cls-11" points="188.66 152.13 118.95 206.55 159.24 170.06 188.66 152.13"/><polygon class="cls-21" points="174.72 198.6 184.13 192.73 182.29 194.63 161.1 209.27 174.72 198.6"/><polygon class="cls-21" points="172.13 165.9 164.32 173.98 143.12 188.62 172.13 165.9"/></svg>