<svg id="Layer_1" data-name="Layer 1" xmlns="http://www.w3.org/2000/svg" xmlns:xlink="http://www.w3.org/1999/xlink" viewBox="0 0 367.71 346.32"><defs><style>.cls-1{fill:#0078ff;isolation:isolate;}.cls-2{fill:#7f46f0;}.cls-3{fill:#d34fa0;}.cls-4{fill:#0aa5e8;}.cls-5{fill:url(#linear-gradient);}</style><linearGradient id="linear-gradient" x1="101.14" y1="167.36" x2="266.57" y2="167.36" gradientUnits="userSpaceOnUse"><stop offset="0" stop-color="#0ca4fd"/><stop offset="0.09" stop-color="#11a1fd" stop-opacity="0.96"/><stop offset="0.23" stop-color="#1e97fd" stop-opacity="0.85"/><stop offset="0.42" stop-color="#3388fe" stop-opacity="0.68"/><stop offset="0.64" stop-color="#5174fe" stop-opacity="0.44"/><stop offset="0.9" stop-color="#765aff" stop-opacity="0.14"/><stop offset="1" stop-color="#874eff" stop-opacity="0"/></linearGradient></defs><path class="cls-1" d="M201.29,135.2V121H189s-19.29-.19-19.29,19.29v11.94h14.11V139.8s.89-4.67,4.67-4.67S201.29,135.2,201.29,135.2Z"/><path class="cls-2" d="M169.68,166.46h14.21v12.28S184.08,198,164.6,198H152.66V183.92h12.42s4.67-.89,4.67-4.66S169.68,166.46,169.68,166.46Z"/><path class="cls-3" d="M152.65,183.83h-14.2V171.54s-.19-19.29,19.29-19.29h11.94v14.11H157.26s-4.67.89-4.67,4.67S152.65,183.83,152.65,183.83Z"/><path class="cls-4" d="M183.92,152.22v14.21H196.2s19.29.19,19.29-19.29V135.2H201.38v12.42s-.89,4.67-4.67,4.67S183.92,152.22,183.92,152.22Z"/><path class="cls-5" d="M259.71,249.75l-31.53-31.52c-5.83,4.66-19.51,11.48-27.09,14.2a71,71,0,0,1-24.18,4.08q-31.77,0-53.77-22t-22-53.77q0-31.76,22-53.76t53.77-22q31.76,0,53.76,22t22,53.76a71.07,71.07,0,0,1-4.08,24.19c-2.72,7.58-8.85,19.72-13.51,25.54L266.57,242Zm-82.8-25.63q26.4,0,44.89-18.49t18.48-44.89q0-26.4-18.48-44.89T176.91,97.37q-26.41,0-44.89,18.48t-18.49,44.89q0,26.41,18.49,44.89T176.91,224.12Z"/></svg>