<svg id="Layer_1" data-name="Layer 1" xmlns="http://www.w3.org/2000/svg" xmlns:xlink="http://www.w3.org/1999/xlink" viewBox="0 0 367.71 346.32"><defs><style>.cls-1{fill:#ff260b;}.cls-1,.cls-2,.cls-3,.cls-4,.cls-5,.cls-6,.cls-7{opacity:0.89;}.cls-2{fill:#6202c9;}.cls-3{fill:#0165ca;}.cls-4{fill:#00cdcc;}.cls-5{fill:#ff8000;}.cls-6{fill:#fcd901;}.cls-7{fill:#68c30e;}.cls-8{fill:url(#linear-gradient);}.cls-9{fill:url(#linear-gradient-2);}.cls-10{fill:url(#linear-gradient-3);}</style><linearGradient id="linear-gradient" x1="85.81" y1="214.74" x2="151.39" y2="214.74" gradientUnits="userSpaceOnUse"><stop offset="0" stop-color="#ff260b" stop-opacity="0.89"/><stop offset="1" stop-color="#ff8000" stop-opacity="0.89"/></linearGradient><linearGradient id="linear-gradient-2" x1="143.94" y1="214.74" x2="209.52" y2="214.74" gradientUnits="userSpaceOnUse"><stop offset="0" stop-color="#fcd901" stop-opacity="0.89"/><stop offset="0.49" stop-color="#68c30e" stop-opacity="0.89"/><stop offset="1" stop-color="#00cdcc" stop-opacity="0.89"/></linearGradient><linearGradient id="linear-gradient-3" x1="204.83" y1="214.74" x2="270.41" y2="214.74" gradientUnits="userSpaceOnUse"><stop offset="0" stop-color="#0165ca" stop-opacity="0.89"/><stop offset="1" stop-color="#6202c9" stop-opacity="0.89"/></linearGradient></defs><path class="cls-1" d="M102,144.45s31.38,56.74,74.16,31.38C176.18,175.83,170.42,129.63,102,144.45Z"/><path class="cls-2" d="M250.4,144.58s-62.55-17.09-74.22,31.25C176.18,175.83,213.3,203.93,250.4,144.58Z"/><path class="cls-3" d="M233,118.78s-64.36,7.89-56.84,57.05C176.18,175.83,221.18,187.77,233,118.78Z"/><path class="cls-4" d="M205.49,100.82s-55.85,33-29.31,75C176.18,175.83,222.2,168.79,205.49,100.82Z"/><path class="cls-5" d="M119.37,118.76s7.62,64.39,56.81,57.07C176.18,175.83,188.3,130.88,119.37,118.76Z"/><path class="cls-6" d="M146.77,100.86s-18.63,62.11,29.41,75C176.18,175.83,205.19,139.41,146.77,100.86Z"/><path class="cls-7" d="M175.46,85.56s-44.71,57,0,90C175.46,175.53,220.49,149.49,175.46,85.56Z"/><path class="cls-8" d="M99.73,236.73l-13.92-44H97.12l8.24,28.83,7.58-28.83h11.23l7.33,28.83,8.41-28.83h11.48l-14.13,44H126.08l-7.58-28.29L111,236.73Z"/><path class="cls-9" d="M157.86,236.73l-13.92-44h11.31l8.24,28.83,7.58-28.83H182.3l7.33,28.83L198,192.74h11.48l-14.13,44H184.2l-7.58-28.29-7.46,28.29Z"/><path class="cls-10" d="M218.75,236.73l-13.92-44h11.31l8.25,28.83L232,192.74H243.2l7.33,28.83,8.41-28.83h11.47l-14.12,44H245.1l-7.58-28.29-7.46,28.29Z"/></svg>